<?xml version="1.0" encoding="UTF-8"?>
<!DOCTYPE svg PUBLIC "-//W3C//DTD SVG 1.1//EN" "http://www.w3.org/Graphics/SVG/1.1/DTD/svg11.dtd">
<!-- Creator: CorelDRAW 2021 (64-Bit) -->
<svg xmlns="http://www.w3.org/2000/svg" xml:space="preserve" width="338.667mm" height="338.667mm" version="1.1" style="shape-rendering:geometricPrecision; text-rendering:geometricPrecision; image-rendering:optimizeQuality; fill-rule:evenodd; clip-rule:evenodd"
viewBox="0 0 33866.66 33866.66"
 xmlns:xlink="http://www.w3.org/1999/xlink"
 xmlns:xodm="http://www.corel.com/coreldraw/odm/2003">
 <defs>
  <style type="text/css">
   <![CDATA[
    .fil15 {fill:black}
    .fil13 {fill:black}
    .fil12 {fill:#009933}
    .fil14 {fill:#009933}
    .fil21 {fill:#00CCFF}
    .fil2 {fill:#501D1A}
    .fil6 {fill:#BDA757}
    .fil9 {fill:#BFB7A3}
    .fil5 {fill:#C2A438}
    .fil7 {fill:#E4ADA8}
    .fil8 {fill:#F3EBD6}
    .fil11 {fill:#F9755F}
    .fil10 {fill:#FADD76}
    .fil4 {fill:#FFF12E}
    .fil0 {fill:white}
    .fil18 {fill:#009933;fill-rule:nonzero}
    .fil3 {fill:#00CCFF;fill-rule:nonzero}
    .fil17 {fill:#F9755F;fill-rule:nonzero}
    .fil19 {fill:red;fill-rule:nonzero}
    .fil20 {fill:#FF6633;fill-rule:nonzero}
    .fil16 {fill:#FFCC00;fill-rule:nonzero}
    .fil1 {fill:#00CCFF;fill-opacity:0.231373}
   ]]>
  </style>
 </defs>
 <g id="Layer_x0020_1">
  <metadata id="CorelCorpID_0Corel-Layer"/>
  <rect class="fil0" x="-0" y="-0.01" width="33866.67" height="33866.67"/>
  <g id="_2548219274800">
   <path class="fil1" d="M15535.05 7843.14c5595.29,0 10131.16,4535.87 10131.16,10131.16 0,5595.29 -4535.87,10131.16 -10131.16,10131.16 -5595.29,0 -10131.16,-4535.87 -10131.16,-10131.16 0,-5595.29 4535.87,-10131.16 10131.16,-10131.16z"/>
   <polygon class="fil2" points="15326.29,22866.88 13179.7,22866.88 12676.76,22430.6 9933.56,23091 9933.56,22456 6081.22,22456 6208.22,25368.54 2652.22,25368.54 2745.36,28848.34 6470.69,28789.07 6470.69,26638.54 6699.29,28738.27 9518.69,28772.14 10128.29,26071.27 10212.96,28975.34 13718.16,28975.34 13794.36,26054.34 13938.29,29110.8 17502.76,29017.67 17502.76,29182.84 20957.16,29110.8 20957.16,29491.8 24606.29,29491.8 24606.29,26452.27 21059.86,26452.27 21059.86,23218 16791.56,23218 16791.56,22866.88 "/>
   <path class="fil0" d="M6526.47 22866.88l3025.86 0 0 2500.14 -2937.14 0 -88.72 -2500.14zm197.13 190.26l75.22 2119.62 2563.25 0 0 -2119.62 -2638.47 0z"/>
   <polygon class="fil0" points="6881.5,23209.54 6945.91,25024.36 9209.67,25024.36 9209.67,23209.54 "/>
   <polygon class="fil0" points="12657.42,22866.88 12657.42,25251.17 13066.22,24987.54 13066.22,23091 "/>
   <path class="fil0" d="M10043.62 23328.07l0 1739.18 2252.14 225.09 0 -2425.46 -2252.14 461.19zm147.92 120.7l0 1484.61 1956.3 195.52 0 -2080.74 -1956.3 400.61z"/>
   <polygon class="fil0" points="10352.92,23580.45 10352.92,24787.32 11986.46,24950.59 11986.46,23245.94 "/>
   <path class="fil0" d="M3059.19 25911.92l3025.86 0 0 2500.14 -2937.14 0 -88.72 -2500.14zm197.13 190.26l75.22 2119.62 2563.25 0 0 -2119.62 -2638.47 0z"/>
   <polygon class="fil0" points="3414.22,26254.58 3478.63,28069.4 5742.39,28069.4 5742.39,26254.58 "/>
   <path class="fil0" d="M6944.82 28441.94l2362.81 0 456.59 -2150.54 -2997.2 0 177.8 2150.54zm171.51 -127l2040.43 0 377.49 -1837.27 -2564.92 0 147 1837.27z"/>
   <polygon class="fil0" points="7202.08,28213.34 9081.33,28213.34 9419.27,26570.8 7070.48,26570.8 "/>
   <path class="fil0" d="M10496.59 26173.05l3025.86 0 0 2500.14 -2937.14 0 -88.72 -2500.14zm197.13 190.26l75.22 2119.62 2563.25 0 0 -2119.62 -2638.47 0z"/>
   <polygon class="fil0" points="10851.62,26515.71 10916.03,28330.53 13179.79,28330.53 13179.79,26515.71 "/>
   <path class="fil0" d="M17689.02 26382.06l3025.86 0 0 2500.14 -2937.14 0 -88.72 -2500.14zm197.13 190.26l75.22 2119.62 2563.25 0 0 -2119.62 -2638.47 0z"/>
   <polygon class="fil0" points="18044.05,26724.72 18108.46,28539.54 20372.22,28539.54 20372.22,26724.72 "/>
   <path class="fil0" d="M14133.02 26305.86l3025.86 0 0 2500.14 -2937.14 0 -88.72 -2500.14zm197.13 190.26l75.22 2119.62 2563.25 0 0 -2119.62 -2638.47 0z"/>
   <polygon class="fil0" points="14488.05,26648.52 14552.46,28463.34 16816.22,28463.34 16816.22,26648.52 "/>
   <path class="fil0" d="M21280.6 26712.26l3025.86 0 0 2500.14 -2937.14 0 -88.72 -2500.14zm197.13 190.26l75.22 2119.62 2563.25 0 0 -2119.62 -2638.47 0z"/>
   <polygon class="fil0" points="21635.63,27054.92 21700.04,28869.74 23963.8,28869.74 23963.8,27054.92 "/>
   <rect class="fil0" x="16642.56" y="23298.53" width="318.33" height="2721.94"/>
   <path class="fil0" d="M13358.32 23312.9l3025.86 0 0 2500.14 -2937.14 0 -88.72 -2500.14zm197.13 190.26l75.22 2119.62 2563.25 0 0 -2119.62 -2638.47 0z"/>
   <polygon class="fil0" points="13713.35,23655.56 13777.76,25470.38 16041.52,25470.38 16041.52,23655.56 "/>
   <path class="fil0" d="M17193.72 23600.76l3025.86 0 0 2500.14 -2937.14 0 -88.72 -2500.14zm197.13 190.26l75.22 2119.62 2563.25 0 0 -2119.62 -2638.47 0z"/>
   <polygon class="fil0" points="17548.75,23943.42 17613.16,25758.24 19876.92,25758.24 19876.92,23943.42 "/>
   <path class="fil3" d="M19563.09 24517.36c-4.45,28.62 -45.78,90.93 -124.32,187.59 -78.53,96.66 -172.97,198.09 -282.98,304.29 -6.04,130.36 -17.49,247.36 -33.7,351.02 -16.54,103.65 -31.8,164.7 -45.47,182.5 -7.31,8.91 -32.75,15.58 -75.67,20.67 -43.24,4.77 -90.3,7.95 -141.81,9.22 -51.19,1.27 -99.2,1.27 -144.35,0 -44.83,-1.27 -72.18,-4.77 -81.4,-10.17 -20.35,-11.13 -41.65,-68.36 -63.91,-172.02 -21.94,-103.33 -38.79,-220.02 -50.55,-349.75 -115.1,-108.1 -214.3,-211.75 -297.61,-310.96 -83.62,-99.52 -127.18,-164.06 -131,-193.95 -4.45,-17.17 6.36,-46.42 31.8,-87.44 25.44,-41.01 55.96,-82.35 92.21,-124.32 35.93,-41.97 72.17,-79.17 108.42,-111.28 36.25,-32.43 62.64,-49.28 78.53,-50.24 36.25,-1.91 93.48,28.94 172.02,92.53 78.53,63.59 162.47,138.31 252.14,224.15 89.98,-85.84 174.24,-160.88 252.77,-225.43 78.53,-64.54 136.4,-95.7 173.6,-93.16 15.58,1.28 41.66,17.17 77.9,48.02 36.25,30.52 72.5,65.81 109.06,105.56 36.25,39.74 67.41,79.17 93.16,118.28 25.76,39.1 35.93,67.4 31.16,84.89z"/>
   <path class="fil2" d="M14742.62 22549.14c-881.39,-236.08 -1053.51,-1206.15 -194.73,-1363.14 317.98,-58.13 561.41,-121.79 738.63,-177.01 465.52,-145.08 498.04,-325.72 886.97,-483.39l-8.47 -59.26c-643.47,-1397 -25.4,-1947.34 -25.4,-1947.34 -228.6,-254 16.94,-999.06 16.94,-999.06 -383.33,-427.56 -12.9,-975.01 -203.2,-1244.6 -313.95,58.13 -231.18,31.5 -313.27,-313.27 0,0 203.2,-152.4 59.27,-347.13 -232.89,-315.09 289.32,-493.53 93.13,-846.67 -285.45,-513.81 136.08,-612.5 189.21,-1106.45 28.26,-262.81 -63.87,-434.17 -86.45,-675.14 -47.72,-509.16 108.91,-1351.08 108.91,-1351.08 -296.33,-1100.67 -101.6,-2404.53 -101.6,-2404.53 -372.53,-313.27 -143.94,-1083.73 -143.94,-1083.73 -346.02,-183.29 -2086.73,-1260.37 -1884.71,-1858.64 233,-689.89 2282.54,134.63 2722.91,317.7 169.33,-389.47 956.74,-491.06 956.74,-491.06 804.34,-880.53 1981.2,-414.87 1981.2,-414.87 1176.87,-457.2 1981.2,372.53 1981.2,372.53 0,0 872.06,-1430.87 1566.33,-1651 1411.69,-447.6 106.07,2432.44 -76.2,2734.74 0,0 313.27,93.12 211.67,694.26 0,0 550.33,567.28 16.93,1337.74 0,0 194.73,1058.33 -25.4,2302.93 0,0 321.73,550.33 152.4,1803.4 -69.04,586.93 330.85,686.06 194.73,1303.87 0,0 -118.53,245.52 8.47,414.86 127,169.34 228.6,313.27 25.4,668.87 0,0 245.53,-237.07 601.13,-110.07 1078.38,385.14 2889.67,-994.7 4271.24,364.34 552.94,543.92 501.76,905.63 856.13,1443.18 641.24,972.75 1677.32,657.78 1866.1,1342.08 270.36,980.06 -1384.28,1629.3 -2116.67,2040.47 -559.02,220.64 -137.89,1203.86 -1024.46,1371.6l-143.94 220.13c0,0 270.94,753.54 -296.33,1024.47 0,0 -143.94,1193.79 -821.27,1515.53 339.54,693.82 -1082.28,892.19 -1583.26,795.87 -440.26,-84.67 -296.33,-516.46 -152.4,-626.53 0,0 76.19,-592.68 -448.74,-855.14 -314.81,268.18 -183.88,538.81 -620.74,827.38 -346.96,229.17 -483.6,65.06 -672.83,128.33 -202.57,67.74 -219.93,429.01 -355.04,594.68 -58.01,71.13 -134.35,114.65 -247.92,126.01 -102.14,43.77 -67.5,120.15 -80.88,217.55 -14.99,109.17 -90.31,244.79 -486.07,390.57 -489.77,180.41 -1186.95,235 -1346.52,-100.12 0,0 -541.86,-397.94 -491.06,-990.6 -15.84,-435.77 -401.09,-648.3 -321.74,-846.66 0,0 -888.99,-177.8 -1481.66,-711.2 0,0 -931.34,84.67 -1532.47,-304.8 0,0 -440.27,-414.87 -846.67,-440.27 -1113.71,-69.61 -479.79,-311.46 -1371.6,-550.33z"/>
   <path class="fil4" d="M23519.23 16204.65l54.13 28.35c170.52,-561.74 484.32,-298.68 947.6,-277.57 987.68,45 1388.46,-261.92 2128.95,-302.44 2519.71,-138.01 1664.68,2629.89 3925.38,2882.95 6.36,-3.07 -1003.65,356.6 -2044.83,-615.47 -454.93,-424.7 -670.25,-881.72 -1325.33,-1106 -1180.45,-404.12 -3198.44,945.8 -4340.97,280.98 -1.53,-0.81 -3.1,-1.55 -4.6,-2.54l-5.19 -3.47c-70.93,-42.19 -138.59,-91.93 -202.26,-150.79l1.74 -1.47c-132.78,-107.94 -258.44,-219.39 -258.44,-219.39l1030.38 -434.05 0 0.01 93.44 -79.1z"/>
   <path class="fil5" d="M30483.91 18560.03c-270.36,59.57 -1101.4,155.94 -1953.45,-639.56 -454.93,-424.7 -670.25,-881.72 -1325.33,-1106 -1180.45,-404.12 -3198.44,945.8 -4340.97,280.98 -1.53,-0.81 -3.1,-1.55 -4.6,-2.54l-5.19 -3.47c-70.93,-42.19 -138.59,-91.93 -202.26,-150.79l1.74 -1.47c-132.78,-107.94 -258.44,-219.39 -258.44,-219.39l986.36 -415.51c301.45,149.48 851.75,351.35 1477.44,212.31 914.4,-203.2 2169.49,-552.7 3005.66,-67.73 818.8,474.9 729.59,1974.98 2619.04,2113.17z"/>
   <path class="fil6" d="M26181.09 16918.8c0,0 651.94,-321.74 1303.87,177.8 0,0 -127.01,76.2 -321.74,76.2 0,0 -177.8,296.33 -381,304.8 -240.7,-128.36 -8.81,-410.72 -601.13,-558.8z"/>
   <path class="fil0" d="M24640.16 20009.14c-367.43,227.89 -922.8,990.63 -389.47,1219.2 0,0 194.73,-846.67 474.13,-1049.87l-84.66 -169.33z"/>
   <path class="fil0" d="M21041.71 26030.25l76.31 269.62c695.27,456.87 1557.75,-477.48 1092.2,-516.47 -736.6,457.2 -1168.51,246.85 -1168.51,246.85z"/>
   <path class="fil7" d="M25214.16 25142.54l18.66 200.6c137.11,292.5 1122.78,147.15 1282.9,-261.7 -2.18,-0.53 -140.96,-34.04 -275.36,41.56 -173.54,97.62 -169.3,-82.29 -338.04,-33.71 -82.63,23.78 -120.5,107.98 -238.62,125.74 -154.64,23.24 -385.02,-24.7 -449.54,-72.49z"/>
   <path class="fil0" d="M22328.76 16978.07c0,0 -262.47,677.33 -516.47,965.2 -336.61,-265 -1064.74,-566.64 -1117.6,-1016 0,0 -982.13,660.39 -1972.73,-8.47 -154.12,744.92 -869.06,607.71 -1092.2,1083.74 0,0 -397.94,-516.48 -524.94,-1058.34l-626.53 -355.6c0,0 -211.67,677.34 50.8,1024.47 0,0 -194.73,533.39 0,1058.33 0,0 -516.46,804.33 84.67,1651 0,0 -262.48,948.28 440.26,1413.94 0,0 -135.46,880.53 778.94,1109.13 0,0 177.8,745.07 1083.73,736.6 436.31,595.73 1311.07,434.04 863.6,-135.47 0,0 -491.07,-728.12 203.2,-1100.66 0,0 -347.13,829.72 101.6,1126.06 0,0 -152.41,787.41 423.33,1032.94 0,0 -8.47,685.79 355.6,897.46l91.31 322.63c166.55,543.93 1696.05,-40.57 1551.23,-475.03 0,0 643.46,-177.79 550.33,-846.66 0,0 677.33,-846.67 660.4,-1176.87 -15.73,-306.84 -280.86,-495.46 270.93,-745.07 0,0 245.53,812.8 711.2,872.07 0,0 -169.34,745.07 431.8,897.47l62.34 670.2c0.19,0.58 55.06,163.45 315.52,167.27 253.8,3.72 205.32,-81.13 360.53,-112.94 174.15,-35.71 178.08,133.09 404.08,31.86 133.8,-59.95 254.53,-180.66 254.53,-180.66 468.68,-181.43 880.14,-1068.41 770.47,-1515.53 0,0 635,-245.54 228.6,-973.67 0,0 567.27,-584.21 101.6,-1227.67 0,0 -245.54,-186.26 -84.67,-474.13 160.87,-287.87 330.21,-1041.4 -135.46,-1270 0,0 330.2,-643.46 -287.87,-931.33 0,0 169.33,-838.2 -541.87,-897.47 -269.06,-986.52 -3455.17,745.98 -4250.26,-558.8zm-736.6 4478.87c0,0 -50.8,-262.48 220.13,-169.34 270.93,93.14 177.8,609.6 -101.6,567.27 0,0 8.47,431.8 -406.4,482.6 84.55,614.93 -338,700.36 -773.68,704.27 -351.37,3.1 -189.02,-234.48 37.07,-204.73 321.74,42.33 592.67,-245.53 474.14,-643.47 0,0 355.6,-84.67 304.8,-364.07 0,0 372.54,-143.93 245.54,-372.53z"/>
   <path class="fil7" d="M21051.02 26063.15c38.71,1.63 77.52,2.34 115.75,2.34 102.38,17.86 265.56,25.3 481.71,-31.17l0.47 -0.06 0.05 -0.07c159.34,-41.69 347.41,-118.09 561.22,-250.79 465.55,38.99 -396.93,973.34 -1092.2,516.47l-67 -236.72z"/>
   <path class="fil7" d="M25998.84 24989.13c70.89,31.78 122.24,86.56 274.85,18.2 133.8,-59.95 254.53,-180.66 254.53,-180.66 468.68,-181.43 880.14,-1068.41 770.47,-1515.53 0,0 635,-245.54 228.6,-973.67 0,0 567.27,-584.21 101.6,-1227.67 0,0 -245.54,-186.26 -84.67,-474.13 160.87,-287.87 330.21,-1041.4 -135.46,-1270 0,0 296.26,-577.57 -198.27,-883.11 386.69,689.25 -90.68,1528.76 -90.68,1528.76 203.2,618.06 -262.47,1151.47 -262.47,1151.47 237.07,440.27 -135.47,1049.87 -135.47,1049.87 321.73,719.67 -270.93,1049.86 -270.93,1049.86 213.54,695.06 -90.36,1296.28 -452.1,1726.61z"/>
   <path class="fil7" d="M23861.76 22545.45c36.41,-20.97 78.32,-42.28 126.46,-64.05 0,0 215.45,713.2 625.48,852.15 -465.55,-453.85 -220.16,-866.89 -220.16,-866.89 -160.87,-364.06 203.2,-711.2 203.2,-711.2 -50.8,-355.6 101.6,-457.2 101.6,-457.2 -135.47,-389.46 127,-508 127,-508 -59.27,-516.46 296.33,-457.2 296.33,-457.2 59.26,-211.66 372.54,-84.67 372.54,-84.67 -76.2,-338.67 -499.54,-270.93 -499.54,-270.93 -115.05,0 -219.01,46.58 -310.78,119.16l40.93 81.85c-258.26,187.82 -444.16,925.34 -470.82,1035.9 18.78,81.01 37.94,162.51 37.94,253.22 0,239.25 -262.47,296.33 -262.47,296.33 -278.51,-75.96 -411.62,84.31 -473.64,225.41 -225.06,-171.54 -559.29,-157.67 -559.29,-157.67 -27.62,-379.76 -692.76,-363.43 -1023.46,-309.31 12.79,169.53 -88.84,358.81 -262.39,332.52 0,0 3.52,181.97 -107.48,323.54 340.33,34.6 351.93,330.58 351.93,330.58 228.6,-177.8 626.53,-279.4 812.8,431.8 186.27,711.2 -406.4,575.73 -338.67,1210.73 67.73,635 -533.4,804.34 -533.4,804.34 98.5,365.04 -53.46,735.48 -159.2,932.98 426.21,-117.9 849.21,-400.87 769.89,-638.84 0,0 643.46,-177.79 550.33,-846.66 0,0 677.33,-846.67 660.4,-1176.87 -14.36,-280.05 -236.33,-461.63 144.5,-680.97l-0.03 -0.05z"/>
   <path class="fil7" d="M17628.49 18000.88c-24.44,-32.11 -400.82,-532.51 -523.67,-1056.68l-626.53 -355.6c0,0 -211.67,677.34 50.8,1024.47 0,0 -194.73,533.39 0,1058.33 0,0 -516.46,804.33 84.67,1651 0,0 -262.48,948.28 440.26,1413.94 0,0 -135.46,880.53 778.94,1109.13 0,0 177.8,745.07 1083.73,736.6 436.31,595.73 1311.07,434.04 863.6,-135.47 0,0 -489.54,-725.94 200.19,-1098.98 43.23,-82.19 80.38,-161.98 86.59,-236.56 16.93,-203.2 -414.86,-76.2 -414.86,-76.2 -745.06,220.14 -1219.2,-753.54 -1219.2,-753.54 -1185.33,0 -889,-1058.33 -889,-1058.33 -364.06,-838.2 211.66,-1227.67 211.66,-1227.67 -116.38,-354.77 -148.11,-688.98 -127.18,-994.44z"/>
   <path class="fil7" d="M23156.21 24559.52c-33.9,104.75 -37.48,212.57 78.48,233.28 450.99,80.55 622.62,-16.59 713.06,-168.5 -353.4,-278.25 -790.85,-65.12 -791.54,-64.78z"/>
   <path class="fil7" d="M23768.09 22853.94c0,0 340.35,361.63 -302.72,1234.15 -84.43,114.55 -189.24,216.17 -253.11,340.13 494.01,-135.98 784.43,51.32 784.43,51.32 0,0 3.72,5.17 9.85,13.97 56.52,-159.16 88.75,-337.17 252.62,-437.31 100.77,-61.58 168.23,-215.72 172.99,-371.82 10.62,-349.48 -406.61,-481.41 -545.53,-898.18l-118.53 67.74z"/>
   <path class="fil7" d="M15309.2 22425.71c-663.74,-133.46 -1123.37,-616.05 -987.56,-835.26 46.27,-74.69 165.29,-68.84 361.72,-108.11l434.67 -86.89c-141.06,311.05 14.06,569.49 132.59,738.82 116.62,166.61 60.41,287.59 58.58,291.44z"/>
   <path class="fil0" d="M18019.22 23311.14c0,0 -258.9,58.83 -570.65,-78.54 -124.86,-55.01 -217.06,-159.8 -279.78,-185.95 -102.78,-42.86 -162.59,-27.61 -291.78,-97.51 -334.96,-181.25 -294.39,-291.97 -745.85,-281.47 -230.91,5.37 -356.23,-23.33 -451.58,-81.76l-378.16 -620.97c-453.81,-656.8 349.68,-693.92 508,-897.47 118.54,-152.4 355.61,-270.94 448.74,-59.27 93.13,211.67 245.52,668.87 618.06,897.47 0,0 -67.74,855.14 812.8,1100.67l330.2 304.8z"/>
   <path class="fil7" d="M18019.22 23311.14c0,0 -258.9,58.83 -570.65,-78.54 -124.86,-55.01 -217.06,-159.8 -279.78,-185.95 -102.78,-42.86 -162.59,-27.61 -291.78,-97.51 -334.96,-181.25 -294.39,-291.97 -745.85,-281.47 -230.91,5.37 -356.23,-23.33 -451.58,-81.76l-169.65 -278.58c529.78,117.89 670.94,-382.54 670.94,-382.54 211.65,45.65 362.23,-79.58 460.81,-219.12 66.77,75.61 144.15,144.54 234.54,200 0,0 -67.74,855.14 812.8,1100.67l330.2 304.8z"/>
   <path class="fil7" d="M16138.9 7182.8c-105.28,72.23 -243.14,215.05 -210.94,456.54l6.69 43.95c-207.41,-141.69 -1143.32,-830.15 -1148.35,-1028.99 -5.87,-231.37 1247.3,453.81 1352.58,528.49l0.02 0.01z"/>
   <path class="fil0" d="M16478.29 6784.2l-93.13 296.34 -135.47 42.33c-195.34,-117.78 -1511.24,-821.2 -1601.39,-581.29 -94.48,251.51 1157.85,1185.76 1309.29,1292.49l29.63 194.73c-376.25,-193.76 -2022.49,-1141.99 -1820.12,-1649.73 180.86,-453.86 2169.12,332.67 2311.19,405.13z"/>
   <path class="fil7" d="M22234.74 6283.81c103.35,55.94 263.03,181.37 364.95,449.59l25.41 50.83c639.02,-1324.87 649.67,-2481.05 -390.36,-500.42z"/>
   <path class="fil0" d="M21769.96 6106.87l364.06 135.47c0,0 364.08,-728.14 651.94,-1032.94 375.62,-397.73 418.4,-5.44 374.14,278.47 -41.37,265.27 -152.41,725.67 -433.41,1499.53l101.6 42.34c0,0 626.54,-1100.68 694.27,-1896.54 137.19,-1612.1 -1594.74,689.52 -1752.6,973.67z"/>
   <path class="fil0" d="M19534.76 6012.46c0,0 -1303.88,-328.92 -1896.54,534.68 0,0 -812.79,-228.6 -1024.46,677.33 0,0 -584.21,118.53 -321.74,812.8 0,0 -626.52,364.07 -84.66,1016 0,0 -93.13,2015.07 177.8,2514.6 -387.15,1084.04 145.01,1840.48 -169.34,2582.33 0,0 287.68,709.99 1102.39,1063.16 548.28,237.65 997.69,75.73 1530.75,376.18 0,0 287.87,-153.6 685.8,-153.6 397.93,0 770.46,153.6 770.46,153.6 533.06,-300.45 982.47,-138.53 1530.75,-376.18 814.71,-353.17 1102.39,-1063.16 1102.39,-1063.16 -314.35,-741.85 217.81,-1498.29 -169.34,-2582.33 270.93,-499.53 177.8,-2514.6 177.8,-2514.6 541.86,-651.93 -84.66,-1016 -84.66,-1016 262.47,-694.27 -321.74,-812.8 -321.74,-812.8 -211.67,-905.93 -1024.46,-677.33 -1024.46,-677.33 -592.66,-863.6 -1981.2,-534.68 -1981.2,-534.68z"/>
   <path class="fil7" d="M19534.76 6012.46c0,0 -1303.88,-328.92 -1896.54,534.68 0,0 -812.79,-228.6 -1024.46,677.33 0,0 -584.21,118.53 -321.74,812.8 0,0 -626.52,364.07 -84.66,1016 0,0 -93.13,2015.07 177.8,2514.6 -387.15,1084.04 145.01,1840.48 -169.34,2582.33 0,0 287.68,709.99 1102.39,1063.16 548.28,237.65 997.69,75.73 1530.75,376.18 0,0 287.87,-153.6 685.8,-153.6 14.15,0 28.26,0.21 42.33,0.59l0 -581.41c-474.14,-186.27 -1016,118.54 -1608.66,42.34 -592.66,-76.2 -889,-448.74 -1151.47,-1219.2 -262.47,-770.46 8.47,-1312.34 76.2,-1676.4 67.73,-364.06 -42.33,-592.67 -143.93,-1210.74 -101.6,-618.07 575.73,-1439.33 575.73,-1439.33 0,0 -626.53,-220.13 -770.47,-702.73 -143.94,-482.6 169.34,-685.8 169.34,-685.8 -220.13,-364.06 262.46,-626.54 262.46,-626.54 270.93,-584.2 922.87,-423.33 922.87,-423.33 261.34,-839.47 1500.41,-717.01 1659.47,-697.68l0 2.19c0,0 2.92,-0.43 8.46,-1.14 5.54,0.71 8.47,1.14 8.47,1.14l0 -2.19c159.06,-19.33 1398.13,-141.79 1659.47,697.68 0,0 651.94,-160.87 922.87,423.33 0,0 482.59,262.48 262.46,626.54 0,0 313.28,203.2 169.34,685.8 -143.94,482.6 -770.47,702.73 -770.47,702.73 0,0 677.33,821.26 575.73,1439.33 -101.6,618.07 -211.66,846.68 -143.93,1210.74 67.73,364.06 338.67,905.94 76.2,1676.4 -262.47,770.46 -558.81,1143 -1151.47,1219.2 -592.66,76.2 -1134.52,-228.61 -1608.66,-42.34l0 581.41c381.61,10.16 728.12,153.01 728.12,153.01 533.06,-300.45 982.47,-138.53 1530.75,-376.18 814.71,-353.17 1102.39,-1063.16 1102.39,-1063.16 -314.35,-741.85 217.81,-1498.29 -169.34,-2582.33 270.93,-499.53 177.8,-2514.6 177.8,-2514.6 541.86,-651.93 -84.66,-1016 -84.66,-1016 262.47,-694.27 -321.74,-812.8 -321.74,-812.8 -211.67,-905.93 -1024.46,-677.33 -1024.46,-677.33 -592.66,-863.6 -1981.2,-534.68 -1981.2,-534.68z"/>
   <path class="fil2" d="M18163.16 8663.8c0,0 -93.14,254 -440.27,50.8 0,0 -262.46,338.66 -651.93,203.2 0,0 -42.34,381.01 -211.67,499.54 0,0 194.73,279.39 101.6,618.06 0,0 599.7,252.58 311.84,955.32 0,0 94.56,111.49 145.36,-23.98 0,0 211.67,93.14 152.4,482.6 0,0 33.87,8.46 110.07,-16.94 0,0 186.27,143.94 406.4,135.47 0,0 423.33,296.33 677.33,270.93 0,0 279.4,194.74 533.4,160.87 0,0 414.87,160.87 668.87,-16.93 0,0 364.07,8.47 533.4,-177.8 0,0 499.54,-67.74 609.6,-296.34 0,0 321.73,16.93 423.33,-127 13.75,123.65 91.02,137.16 177.8,67.74 -138.71,-256.09 38.21,-620.06 177.8,-457.2 0,0 93.13,8.47 42.33,-127 -50.8,-135.47 -169.34,-668.88 254,-880.54 0,0 -84.66,-313.26 135.47,-575.73 0,0 -186.27,-143.93 -177.8,-524.93 0,0 -550.33,67.74 -677.33,-228.6 0,0 -482.6,220.14 -643.47,-152.4 0,0 -273.33,366.38 -651.28,414.72 -160.47,20.53 -270.99,-47.03 -419.77,-10 -319.85,79.62 -550.83,512.17 -825.48,712.88 0,0 -237.08,93.14 -220.14,-177.8 9.97,-159.4 175.39,-557.24 -177.8,-465.67 -157.78,40.91 -166.33,-83.56 -134.21,-195.22 28.31,-98.46 89.53,-331.74 -145.19,-253.51 -248.35,82.78 -105.19,-519.71 143.94,-685.8 0,0 -76.21,-211.66 -245.54,-25.4 -169.33,186.26 -321.73,804.33 16.94,846.66z"/>
   <path class="fil8" d="M17187.48 9091.06c-28.64,122.72 -76.83,253.14 -149.62,349.98 17.87,38.31 33.22,77.77 45.11,113.87 43.37,131.7 58.46,269.14 40.49,404.94 84.39,55.61 163.67,130.55 218.45,203.37 153.12,203.53 181.13,437.79 131.36,669.75l3.26 1.44c65.6,28.96 125.78,91.45 163.24,150.99 56.5,89.78 80.89,193.37 85.16,298.35l44.02 34.14c80.87,61.46 210.93,109.33 312.45,105.43l48.62 -1.87 39.86 27.89c122.95,86.01 427.38,260.78 580.02,245.52l53.33 -5.34 43.81 30.63c109.51,75.8 297.98,153.94 431.53,136.13l36.79 -4.91 34.61 13.42c145.16,56.26 399.46,93.36 533.63,-0.56l38.77 -27.14 47.32 1.02c124.42,2.7 335.18,-33.62 423.23,-130.48l35.33 -38.87 52.05 -7.14c120.81,-16.57 440.86,-95.18 498.92,-215.77l41.87 -86.96 96.17 5.26c62.66,3.1 257.42,-9.28 297.45,-65.97l108.16 -153.22c7.45,-48.06 20.64,-94.89 39.56,-138.69 32.27,-74.72 84.73,-145.45 160.84,-179.48 13.59,-6.07 27.24,-10.7 40.85,-13.97 -29.28,-121.43 -39.08,-258.59 -28.1,-373.17 21.08,-220.11 116.01,-406.42 290.83,-529.01 -3.51,-42.91 -3.73,-86.28 -1.5,-124.75 7.66,-131.95 45,-257.1 111.63,-368.3 -13.82,-20.23 -26.2,-40.69 -36.62,-59.89 -53.89,-99.32 -83.75,-209.65 -96.04,-321.85 -59.41,-0.37 -118.97,-4.41 -173.13,-11.55 -158.49,-20.9 -320.19,-76.18 -424.82,-194.61 -65.37,18.37 -134.22,30.43 -195.25,34.03 -158.41,9.35 -299.28,-32.64 -403.06,-130.09 -25.96,24.99 -52.35,48.67 -77.88,70.21 -154.29,130.14 -338.91,231.41 -541.42,257.31 -89.67,11.47 -165.57,1.33 -253.55,-11.54 -50.3,-7.36 -99.41,-14.07 -149.63,-1.57 -135.39,33.7 -266.67,169.39 -358.29,268.73 -131.39,142.45 -259.9,305.93 -416.78,420.57l-15.32 11.2 -17.61 6.83c-59.47,23.17 -134.27,31.98 -196.78,20.1 -169.73,-32.23 -230.01,-184.26 -220.16,-341.76 4.45,-71.19 24.73,-145.9 36.83,-216.64 3.55,-20.76 11.9,-75.06 10.2,-108.38 -15.94,1.67 -34.96,6.03 -44.14,8.41 -122.67,31.8 -250.88,3.6 -306.71,-121.44 -25.21,-56.46 -27.79,-120.11 -18.73,-181.43 -27.26,31.41 -59.75,58.36 -93.65,77.64 -125.16,71.16 -265.11,52.51 -391.16,-0.34 -43.79,39.02 -92.42,74.29 -137.35,100.86 -134.27,79.38 -280.37,113.54 -428.45,98.67z"/>
   <path class="fil9" d="M17187.48 9091.06c-28.64,122.72 -76.83,253.14 -149.62,349.98 17.87,38.31 33.22,77.77 45.11,113.87 43.37,131.7 58.46,269.14 40.49,404.94 84.39,55.61 163.67,130.55 218.45,203.37 153.12,203.53 181.13,437.79 131.36,669.75l3.26 1.44c65.6,28.96 125.78,91.45 163.24,150.99 56.5,89.78 80.89,193.37 85.16,298.35l44.02 34.14c80.87,61.46 210.93,109.33 312.45,105.43l48.62 -1.87 39.86 27.89c60.63,42.41 165.38,106.39 274.3,158.54 -296.93,-254.04 -434.51,-562.76 -578.44,-681.29 -143.93,-118.53 -127,-364.07 -143.93,-533.4 -16.93,-169.33 -118.54,-304.8 -203.2,-474.13 -84.66,-169.33 -99.27,-422.43 80.72,-547.12 179.99,-124.69 664.34,30.65 807.01,166.12 45.1,42.82 108.56,60.87 175,64.82 -18.19,-51.57 -24.4,-109.98 -20.7,-169.17 4.45,-71.19 24.73,-145.9 36.83,-216.64 3.55,-20.76 11.9,-75.06 10.2,-108.38 -15.94,1.67 -34.96,6.03 -44.14,8.41 -122.67,31.8 -250.88,3.6 -306.71,-121.44 -25.21,-56.46 -27.79,-120.11 -18.73,-181.43 -27.26,31.41 -59.75,58.36 -93.65,77.64 -125.16,71.16 -265.11,52.51 -391.16,-0.34 -43.79,39.02 -92.42,74.29 -137.35,100.86 -134.27,79.38 -280.37,113.54 -428.45,98.67zm3856.24 2269.07l73.54 4.02c62.66,3.1 257.42,-9.28 297.45,-65.97l108.16 -153.22c7.45,-48.06 20.64,-94.89 39.56,-138.69 32.27,-74.72 84.73,-145.45 160.84,-179.48 13.59,-6.07 27.24,-10.7 40.85,-13.97 -29.28,-121.43 -39.08,-258.59 -28.1,-373.17 21.08,-220.11 116.01,-406.42 290.83,-529.01 -3.51,-42.91 -3.73,-86.28 -1.5,-124.75 7.66,-131.95 45,-257.1 111.63,-368.3 -13.82,-20.23 -26.2,-40.69 -36.62,-59.89 -53.89,-99.32 -83.75,-209.65 -96.04,-321.85 -59.41,-0.37 -118.97,-4.41 -173.13,-11.55 -158.49,-20.9 -320.19,-76.18 -424.82,-194.61 -65.37,18.37 -134.22,30.43 -195.25,34.03 -158.41,9.35 -299.28,-32.64 -403.06,-130.09 -10.25,9.87 -20.57,19.53 -30.87,28.94 503.23,176.17 334.44,481.62 537.43,524.7 214.61,45.55 505.05,403.19 445.79,555.59 -59.26,152.4 -279.4,389.46 -279.4,592.66 0,203.2 8.46,313.27 -237.07,524.94 -121.92,105.1 -171.14,261.28 -200.22,399.67z"/>
   <ellipse class="fil2" transform="matrix(0.981245 -0.192766 0.192766 0.981245 17993.8 9700.97)" rx="440.26" ry="588.43"/>
   <ellipse class="fil2" transform="matrix(-0.981245 -0.192766 -0.192766 0.981245 21177.3 9700.97)" rx="440.26" ry="588.43"/>
   <path class="fil4" d="M16063.42 14285.67c0,0 279.41,761.99 1540.94,1286.93 0,0 -482.61,364.06 -397.94,1066.8l-1312.33 -558.8c287.85,-431.78 -129.39,-482.38 32.19,-729.8 139.65,-213.78 200.92,-432.9 86.34,-692.6 -127,-287.86 -33.86,-406.4 50.8,-372.53z"/>
   <path class="fil6" d="M17290.75 16003.38c-69.96,165.48 -115.43,377.87 -84.33,636.02l-1312.33 -558.8c287.85,-431.78 -129.39,-482.38 32.19,-729.8 33.61,-51.46 62.67,-103.23 85.84,-155.8 256.14,323.85 675.05,703.79 1278.63,808.38z"/>
   <path class="fil4" d="M18425.62 16503.94c0,0 -143.92,254 -313.26,355.6 0,0 -76.2,-558.81 499.53,-1109.14 0,0 -609.6,-364.06 -939.8,135.47 -330.2,499.53 -254.01,1236.13 16.93,1778 287.76,-356.27 704.28,-309.25 914.4,-778.93l-177.8 -381z"/>
   <path class="fil4" d="M20991.03 16503.94c0,0 143.92,254 313.26,355.6 0,0 76.2,-558.81 -499.53,-1109.14 0,0 609.6,-364.06 939.8,135.47 330.2,499.53 254.01,1236.13 -16.93,1778 -287.76,-356.27 -704.28,-309.25 -914.4,-778.93l177.8 -381z"/>
   <path class="fil4" d="M18738.89 16334.6c176.4,869.43 1686.26,869.43 1862.66,0 161.48,-795.91 -2024.14,-795.91 -1862.66,0z"/>
   <path class="fil5" d="M18738.89 16334.6c81.02,399.36 443.4,615.12 828.65,647.56l0 0.22c30.89,2.55 61.93,3.88 92.97,4.07l8.63 0.03 8.63 -0.03c31.05,-0.19 62.08,-1.52 92.97,-4.07l0 -0.22c385.25,-32.44 747.63,-248.2 828.65,-647.56 6.84,-33.73 9.15,-65.92 7.92,-96.79 -763.12,-214.97 -1113.22,-214.97 -1876.34,0 -1.23,30.87 1.08,63.06 7.92,96.79z"/>
   <circle class="fil0" cx="17658.3" cy="9423.76" r="249.76"/>
   <circle class="fil0" cx="21523.82" cy="9423.76" r="249.76"/>
   <path class="fil6" d="M18603.42 16884.94l-177.8 -381c0,0 -143.92,254 -313.26,355.6 0,0 -43.01,-315.39 179.73,-705.63 -263.1,264.77 -582.38,706.65 -603.07,1509.96 287.76,-356.27 704.28,-309.25 914.4,-778.93z"/>
   <path class="fil5" d="M17290.75 16003.38c-69.96,165.48 -115.43,377.87 -84.33,636.02l-1312.33 -558.8c287.85,-431.78 -129.39,-482.38 32.19,-729.8 33.61,-51.46 62.67,-103.23 85.84,-155.8 256.14,323.85 675.05,703.79 1278.63,808.38z"/>
   <path class="fil5" d="M18603.42 16884.94l-177.8 -381c0,0 -143.92,254 -313.26,355.6 0,0 -43.01,-315.39 179.73,-705.63 -263.1,264.77 -582.38,706.65 -603.07,1509.96 287.76,-356.27 704.28,-309.25 914.4,-778.93z"/>
   <path class="fil5" d="M20811.8 16884.94l177.8 -381c0,0 143.92,254 313.26,355.6 0,0 43.01,-315.39 -179.73,-705.63 263.1,264.77 582.38,706.65 603.07,1509.96 -287.76,-356.27 -704.28,-309.25 -914.4,-778.93z"/>
   <path class="fil4" d="M23275.95 14285.67c0,0 -279.41,761.99 -1540.94,1286.93 0,0 482.61,364.06 397.94,1066.8l1312.33 -558.8c-287.85,-431.78 129.39,-482.38 -32.19,-729.8 -139.65,-213.78 -200.92,-432.9 -86.34,-692.6 127,-287.86 33.86,-406.4 -50.8,-372.53z"/>
   <path class="fil5" d="M22048.62 16003.38c69.96,165.48 115.43,377.87 84.33,636.02l1312.33 -558.8c-287.85,-431.78 129.39,-482.38 -32.19,-729.8 -33.61,-51.46 -62.67,-103.23 -85.84,-155.8 -256.14,323.85 -675.05,703.79 -1278.63,808.38z"/>
   <path class="fil2" d="M11166.62 7419.26c0,0 -247.52,75.41 -247.52,414.08 0,0 -220.14,177.8 -84.67,431.8 135.47,254 -347.13,220.13 -347.13,220.13 -752.15,-37.14 -2380.77,-81.03 -2913.51,510.05 -253.42,281.19 33.35,420.17 187.24,455.15 0,0 0,118.54 135.47,160.87l-25.01 4038.76c-122.5,4.26 -220.52,104.9 -220.52,228.44 0,122.59 96.5,222.64 217.69,228.33l-6.03 973.94 0 23.17 -4.45 -0.11c-491.95,6.5 -888.78,407.25 -888.78,900.75 0,493.5 396.83,894.25 888.78,900.75 491.95,-6.5 888.78,-407.25 888.78,-900.75 0,-449.91 -329.84,-822.68 -760.88,-889.95l4.39 0 0 -1036.2c70.19,-39.02 117.7,-113.93 117.7,-199.93 0,-86 -47.51,-160.91 -117.7,-199.93l0 -4067.27c0,0 160.03,-42.33 160.03,-254l330.2 -76.2c-397.21,632.61 292.32,559.09 684.64,330.2 0,0 26.55,228.6 221.29,228.6l-2.31 357.31c-457.11,43.4 -814.72,428.24 -814.72,896.71 0,464.5 351.56,846.77 803.1,895.53l-11.36 1754.04c-233.9,44.54 -410.74,250.1 -410.74,496.97 0,277.15 222.87,502.22 499.15,505.87 276.28,-3.65 499.15,-228.72 499.15,-505.87 0,-277.15 -222.87,-502.22 -499.15,-505.87l-1.54 0.04 0 -1740.22c3.39,0.08 6.77,0.22 10.17,0.26 491.96,-6.5 888.78,-407.25 888.78,-900.75 0,-493.5 -396.82,-894.25 -888.78,-900.75 -3.4,0.04 -6.78,0.18 -10.17,0.26l0 -353.53c0,0 226.28,-33.86 192.42,-397.93 0,0 533.4,-211.68 1151.47,-270.94 0,0 110.07,152.4 279.4,211.67l4.02 743.15c-113.22,47.55 -194.78,181.28 -194.78,338.82 0,159.24 83.33,294.13 198.46,340.31l9.04 1669.64c-556.47,28.74 -998.87,488.89 -998.87,1052.51 0,567.47 448.45,1030.09 1010.27,1053.09l5.43 1003.36c-40,-6.25 -80.88,-9.55 -122.47,-9.55 -469.94,0 -850.9,413.18 -850.9,922.86 0,509.69 380.96,922.87 850.9,922.87 469.94,0 850.9,-413.18 850.9,-922.87 0,-417.13 -255.21,-769.51 -605.49,-883.77l5.59 -1032.9c561.82,-23 1010.27,-485.62 1010.27,-1053.09 0,-563.62 -442.4,-1023.77 -998.87,-1052.51l9.04 -1669.64c115.13,-46.18 198.46,-181.07 198.46,-340.31 0,-157.54 -81.56,-291.27 -194.78,-338.82l4.02 -743.15c169.33,-59.27 279.4,-211.67 279.4,-211.67 618.07,59.26 1151.47,270.94 1151.47,270.94 -33.86,364.07 192.42,397.93 192.42,397.93l0 353.53c-3.39,-0.08 -6.77,-0.22 -10.17,-0.26 -491.96,6.5 -888.78,407.25 -888.78,900.75 0,493.5 396.82,894.25 888.78,900.75 3.4,-0.04 6.78,-0.18 10.17,-0.26l0 1740.22 -1.54 -0.04c-276.28,3.65 -499.15,228.72 -499.15,505.87 0,277.15 222.87,502.22 499.15,505.87 276.28,-3.65 499.15,-228.72 499.15,-505.87 0,-246.87 -176.84,-452.43 -410.74,-496.97l-11.36 -1754.04c451.54,-48.76 803.1,-431.03 803.1,-895.53 0,-468.47 -357.61,-853.31 -814.72,-896.71l-2.31 -357.31c194.74,0 221.29,-228.6 221.29,-228.6 392.32,228.89 1081.85,302.41 684.64,-330.2l330.2 76.2c0,211.67 160.03,254 160.03,254l0 4067.27c-70.19,39.02 -117.7,113.93 -117.7,199.93 0,86 47.51,160.91 117.7,199.93l0 1036.2 4.39 0c-431.04,67.27 -760.88,440.04 -760.88,889.95 0,493.5 396.83,894.25 888.78,900.75 491.95,-6.5 888.78,-407.25 888.78,-900.75 0,-493.5 -396.83,-894.25 -888.78,-900.75l-4.45 0.11 0 -23.17 -6.03 -973.94c121.19,-5.69 217.69,-105.74 217.69,-228.33 0,-123.54 -98.02,-224.18 -220.52,-228.44l-25.01 -4038.76c135.47,-42.33 135.47,-160.87 135.47,-160.87 153.89,-34.98 440.66,-173.96 187.24,-455.15 -532.74,-591.08 -2161.36,-547.19 -2913.51,-510.05 0,0 -482.6,33.87 -347.13,-220.13 135.47,-254 -84.67,-431.8 -84.67,-431.8 0,-338.67 -247.52,-414.08 -247.52,-414.08z"/>
   <path class="fil10" d="M11166.62 7596.4c0,0 -141.27,100.83 -86.65,304.67l86.65 0 86.65 0c54.62,-203.84 -86.65,-304.67 -86.65,-304.67z"/>
   <path class="fil6" d="M11166.62 7901.07l86.65 0c54.62,-203.84 -86.65,-304.67 -86.65,-304.67l0 304.67z"/>
   <path class="fil11" d="M11166.62 7967.15c0,0 -196.72,-15.28 -196.72,137.12 0,0 -4.49,124.58 196.72,124.58 201.21,0 196.72,-124.58 196.72,-124.58 0,-152.4 -196.72,-137.12 -196.72,-137.12z"/>
   <path class="fil10" d="M11166.62 8285.95l-102.58 0 15.93 182.39 -127 211.67c0,0 -1964.26,-135.46 -2844.8,177.8 -676.29,235.99 -613.97,601.18 220.13,338.66 621.21,-144.05 1833.32,-422.57 2480.73,-355.6 0,0 71.71,364.04 357.59,364.04 285.88,0 357.59,-364.04 357.59,-364.04 647.41,-66.97 1859.52,211.55 2480.73,355.6 834.1,262.52 896.42,-102.67 220.13,-338.66 -880.54,-313.26 -2844.8,-177.8 -2844.8,-177.8l-127 -211.67 15.93 -182.39 -102.58 0z"/>
   <polygon class="fil6" points="11362.9,8651.06 11253.27,8468.34 11269.2,8285.95 11166.62,8285.95 11166.62,8853.48 11360.19,8659.93 "/>
   <path class="fil6" d="M7840.75 8977.77c-369.14,216.72 -213.25,439.26 487.55,218.7 621.21,-144.05 1833.32,-422.57 2480.73,-355.6 0,0 70.64,358.91 351.78,363.93l0.09 0 0.09 0 0.09 0 0.01 0 0.08 0.01 0.09 0 0.09 0 0.1 0 0.09 0 0.09 0.01 0.09 0 0.09 0 0.09 0 0.09 0 0.09 0.01 0.09 0 0.09 0 0.09 0 0.09 0 0.18 0.01 0.09 0 0.09 0 0.27 0.01 0.09 0 0.1 0 2.35 0.05 0.09 0 0.46 0.01 0.09 0 0.09 0 0.1 0 0.09 0 0.09 0 0.09 0 0.09 0 0.1 0 0.09 0 0.09 0 0.46 -0.01 0.09 0 2.35 -0.05 0.1 0 0.09 0 0.27 -0.01 0.09 0 0.09 0 0.18 -0.01 0.09 0 0.09 0 0.09 0 0.09 0 0.09 -0.01 0.09 0 0.09 0 0.09 0 0.09 0 0.09 -0.01 0.09 0 0.1 0 0.09 0 0.09 0 0.08 -0.01 0.01 0 0.09 0 0.09 0 0.09 0c281.14,-5.02 351.78,-363.93 351.78,-363.93 647.41,-66.97 1859.52,211.55 2480.73,355.6 700.8,220.56 856.69,-1.98 487.55,-218.7 -13.81,53.91 -56.1,95.3 -152.03,98.12 -287.87,8.47 -1390.75,-476.72 -2960.19,-294.96l-207.84 0 -11.62 0 -207.84 0c-1569.44,-181.76 -2672.32,303.43 -2960.19,294.96 -95.93,-2.82 -138.22,-44.21 -152.03,-98.12z"/>
   <path class="fil10" d="M10792.1 8976.34c0,0 -1270,220.13 -1905,575.73 0,0 -152.4,101.6 -254,25.4 -101.6,-76.2 59.26,-254 270.93,-347.13 127.29,-56 300.51,-142.63 536.21,-204.63 301.05,-79.18 1091.89,-144.69 1351.86,-49.37z"/>
   <path class="fil6" d="M10792.1 8976.34c0,0 -1270,220.13 -1905,575.73 0,0 -132.65,88.41 -232.94,38.38 178.98,-249.92 637.17,-563.19 1683.11,-661.3 189.81,-1.31 358.66,11.93 454.83,47.19z"/>
   <path class="fil11" d="M8010.8 9425.07c7.98,10.61 12.7,23.8 12.7,38.1 0,35.07 -28.43,63.5 -63.5,63.5 -35.07,0 -63.5,-28.43 -63.5,-63.5 0,-14.3 4.72,-27.49 12.7,-38.1l101.6 0z"/>
   <path class="fil11" d="M9301.97 9560.54l186.26 -84.67c57.91,254.84 -197.43,263.32 -186.26,84.67z"/>
   <path class="fil11" d="M11166.62 10728.64c-106.29,0 -192.45,-118.17 -192.45,-263.93 0,-145.76 86.16,-263.93 192.45,-263.93 106.29,0 192.45,118.17 192.45,263.93 0,145.76 -86.16,263.93 -192.45,263.93z"/>
   <path class="fil0" d="M9449.75 14669.15c-233.64,-3.64 -421.93,-194.14 -421.93,-428.65 0,-234.51 188.29,-425.01 421.93,-428.65 233.64,3.64 421.93,194.14 421.93,428.65 0,234.51 -188.29,425.01 -421.93,428.65z"/>
   <path class="fil2" d="M9449.75 14620.39c-206.71,-3.5 -373.16,-165.86 -373.16,-365.67 0,-199.81 166.45,-362.16 373.16,-365.66 206.71,3.5 373.16,165.85 373.16,365.66 0,199.81 -166.45,362.17 -373.16,365.67z"/>
   <path class="fil12" d="M9449.75 14591.94c-191,-3.48 -344.72,-153.11 -344.72,-337.21 0,-184.11 153.72,-333.74 344.72,-337.22 191,3.48 344.72,153.11 344.72,337.22 0,184.1 -153.72,333.73 -344.72,337.21z"/>
   <path class="fil13" d="M9449.75 14591.96l0 0c-2.27,0.04 -4.54,0.07 -6.81,0.07 -3.72,0 -7.42,-0.08 -11.11,-0.19l0 -0.64c-82.44,-5.5 -157.04,-38.28 -214.09,-88.99l62.04 -93.06c8.13,-150.36 20.32,-268.21 20.32,-268.21 -113.58,-113.58 -0.08,-255.87 105.03,-76.72l26.7 0 17.92 0 17.92 0 26.7 0c105.11,-179.15 218.61,-36.86 105.03,76.72 0,0 12.19,117.85 20.32,268.21l62.04 93.06c-57.05,50.71 -131.65,83.49 -214.09,88.99l0 0.64c-3.69,0.11 -7.39,0.19 -11.11,0.19 -2.27,0 -4.54,-0.03 -6.81,-0.07l0 0z"/>
   <path class="fil12" d="M9449.75 14591.96l0 0c-2.27,0.04 -4.54,0.07 -6.81,0.07 -3.72,0 -7.42,-0.08 -11.11,-0.19l0 -0.64c-65.44,-4.37 -125.94,-25.93 -176.64,-60 0.17,-1.17 12.74,-85.22 61.16,-48.9 48.77,36.58 71.73,73.48 133.4,79.41l0 30.25z"/>
   <path class="fil0" d="M9449.75 14091.85l-60.45 0 -8.01 -13.65c-13.89,-23.66 -37.42,-56.91 -63.72,-68.12 -9.31,-3.97 -19.71,-5.46 -27.4,2.24 -9.62,9.64 -10.75,27.05 -8.99,39.71 3.69,26.46 19.93,50.84 38.46,69.36l9.3 9.3 -1.35 13.08c-9.13,88.44 -15.42,178.14 -20.21,266.88l-0.41 7.55c0,0 32.35,96.14 127.47,116.01 5.26,-0.06 10.36,-0.35 15.31,-0.84 4.95,0.49 10.05,0.78 15.31,0.84 95.12,-19.87 127.47,-116.01 127.47,-116.01l-0.41 -7.55c-4.79,-88.74 -11.08,-178.44 -20.21,-266.88l-1.35 -13.08 9.3 -9.3c18.53,-18.52 34.77,-42.9 38.46,-69.36 1.76,-12.66 0.63,-30.07 -8.99,-39.71 -7.69,-7.7 -18.09,-6.21 -27.4,-2.24 -26.3,11.21 -49.83,44.46 -63.72,68.12l-8.01 13.65 -60.45 0z"/>
   <path class="fil13" d="M9323.78 14182.49c-1.66,17.7 -3.22,35.43 -4.68,53.18l0 0c14.94,1.26 41.95,14.99 41.95,14.99 70.23,5.62 48.77,-52.83 48.77,-52.83 0,0 -36.57,0 -48.77,4.06 -12.19,4.07 -37.27,-19.4 -37.27,-19.4z"/>
   <path class="fil0" d="M9308.22 14075.91c0,0 0,-36.57 28.45,-32.51 -35.87,-50.23 -62.86,9.57 -28.45,32.51z"/>
   <path class="fil13" d="M9449.75 14209.24c0,0 -35.86,4.85 -39.93,45.49 -4.07,40.63 -8.13,44.7 -8.13,44.7 0,0 16.5,18.44 48.06,18.44 31.56,0 48.06,-18.44 48.06,-18.44 0,0 -4.06,-4.07 -8.13,-44.7 -4.07,-40.64 -39.93,-45.49 -39.93,-45.49z"/>
   <path class="fil0" d="M9421.88 14290.6c7.93,5.39 19.18,8.01 27.87,8.01 8.69,0 19.94,-2.62 27.87,-8.01 -3.06,-11.47 -4.38,-27.43 -4.98,-33.42 -1.32,-13.17 -9.49,-25.63 -22.89,-28.48 -13.4,2.85 -21.57,15.31 -22.89,28.48 -0.6,5.99 -1.92,21.95 -4.98,33.42z"/>
   <path class="fil12" d="M9449.75 14591.96l0 0c2.27,0.04 4.54,0.07 6.81,0.07 3.72,0 7.42,-0.08 11.11,-0.19l0 -0.64c65.44,-4.37 125.94,-25.93 176.64,-60 -0.17,-1.17 -12.74,-85.22 -61.16,-48.9 -48.77,36.58 -71.73,73.48 -133.4,79.41l0 30.25z"/>
   <path class="fil13" d="M9575.72 14182.49c1.66,17.7 3.22,35.43 4.68,53.18l0 0c-14.94,1.26 -41.95,14.99 -41.95,14.99 -70.23,5.62 -48.77,-52.83 -48.77,-52.83 0,0 36.57,0 48.77,4.06 12.19,4.07 37.27,-19.4 37.27,-19.4z"/>
   <path class="fil0" d="M9591.28 14075.91c0,0 0,-36.57 -28.45,-32.51 35.87,-50.23 62.86,9.57 28.45,32.51z"/>
   <path class="fil2" d="M7919.14 12858.31c-417.91,-5.52 -755.01,-345.96 -755.01,-765.18 0,-419.22 337.1,-759.66 755.01,-765.18 417.91,5.52 755.01,345.96 755.01,765.18 0,419.22 -337.1,759.66 -755.01,765.18z"/>
   <path class="fil0" d="M7919.14 12741.51c-353.41,-5.51 -638.22,-293.66 -638.22,-648.38 0,-354.72 284.81,-642.87 638.22,-648.38 353.41,5.51 638.22,293.66 638.22,648.38 0,354.72 -284.81,642.87 -638.22,648.38z"/>
   <path class="fil2" d="M7919.14 12667.75c-312.67,-5.29 -564.45,-250.87 -564.45,-553.11 0,-302.23 251.78,-547.81 564.45,-553.1 312.67,5.29 564.45,250.87 564.45,553.1 0,302.24 -251.78,547.82 -564.45,553.11z"/>
   <path class="fil12" d="M7919.14 12624.73c-288.91,-5.27 -521.43,-231.6 -521.43,-510.08 0,-278.48 232.52,-504.81 521.43,-510.08 288.91,5.27 521.43,231.6 521.43,510.08 0,278.48 -232.52,504.81 -521.43,510.08z"/>
   <path class="fil13" d="M7919.14 12624.75l-0.01 0c-3.42,0.07 -6.85,0.1 -10.29,0.1 -5.63,0 -11.23,-0.11 -16.81,-0.27l0 -0.98c-124.7,-8.32 -237.53,-57.91 -323.83,-134.61l93.84 -140.76c12.3,-227.44 30.73,-405.7 30.73,-405.7 -171.79,-171.79 -0.11,-387.03 158.87,-116.05l40.39 0 27.11 0 27.11 0 40.39 0c158.98,-270.98 330.66,-55.74 158.87,116.05 0,0 18.43,178.26 30.73,405.7l93.84 140.76c-86.3,76.7 -199.13,126.29 -323.83,134.61l0 0.98c-5.58,0.16 -11.18,0.27 -16.81,0.27 -3.44,0 -6.87,-0.03 -10.29,-0.1l-0.01 0z"/>
   <path class="fil12" d="M7919.14 12624.75l-0.01 0c-3.42,0.07 -6.85,0.1 -10.29,0.1 -5.63,0 -11.23,-0.11 -16.81,-0.27l0 -0.98c-98.99,-6.6 -190.49,-39.22 -267.19,-90.75 0.27,-1.78 19.27,-128.91 92.52,-73.97 73.77,55.32 108.5,111.14 201.78,120.12l0 45.75z"/>
   <path class="fil0" d="M7919.14 11868.29l-91.44 0 -12.11 -20.65c-21.01,-35.8 -56.6,-86.09 -96.39,-103.05 -14.07,-5.99 -29.81,-8.25 -41.44,3.4 -14.55,14.58 -16.26,40.91 -13.59,60.06 5.56,40.02 30.14,76.9 58.17,104.92l14.06 14.07 -2.04 19.78c-13.8,133.77 -23.32,269.44 -30.57,403.67l-0.62 11.42c0,0 48.93,145.43 192.81,175.48 7.96,-0.09 15.67,-0.53 23.16,-1.27 7.49,0.74 15.2,1.18 23.16,1.27 143.88,-30.05 192.81,-175.48 192.81,-175.48l-0.62 -11.42c-7.25,-134.23 -16.77,-269.9 -30.57,-403.67l-2.04 -19.78 14.06 -14.07c28.03,-28.02 52.61,-64.9 58.17,-104.92 2.67,-19.15 0.96,-45.48 -13.59,-60.06 -11.63,-11.65 -27.37,-9.39 -41.44,-3.4 -39.79,16.96 -75.38,67.25 -96.39,103.05l-12.11 20.65 -91.44 0z"/>
   <path class="fil13" d="M7728.59 12005.38c-2.51,26.77 -4.86,53.59 -7.08,80.44l0.01 0c22.6,1.91 63.46,22.68 63.46,22.68 106.23,8.5 73.76,-79.91 73.76,-79.91 0,0 -55.32,0 -73.76,6.15 -18.44,6.14 -56.39,-29.36 -56.39,-29.36z"/>
   <path class="fil13" d="M7705.06 11844.17c0,0 0,-55.32 43.03,-49.17 -54.26,-75.98 -95.08,14.48 -43.03,49.17z"/>
   <path class="fil13" d="M7919.14 12045.84c0,0 -54.25,7.34 -60.4,68.81 -6.15,61.47 -12.29,67.61 -12.29,67.61 0,0 24.95,27.9 72.69,27.9 47.74,0 72.69,-27.9 72.69,-27.9 0,0 -6.14,-6.14 -12.29,-67.61 -6.15,-61.47 -60.4,-68.81 -60.4,-68.81z"/>
   <path class="fil0" d="M7876.98 12168.91c11.99,8.16 29.01,12.12 42.16,12.12 13.15,0 30.17,-3.96 42.16,-12.12 -4.63,-17.35 -6.64,-41.49 -7.54,-50.55 -2,-19.92 -14.35,-38.77 -34.62,-43.08 -20.27,4.31 -32.62,23.16 -34.62,43.08 -0.9,9.06 -2.91,33.2 -7.54,50.55z"/>
   <path class="fil12" d="M7919.14 12624.75l0.01 0c3.42,0.07 6.85,0.1 10.29,0.1 5.63,0 11.23,-0.11 16.81,-0.27l0 -0.98c98.99,-6.6 190.49,-39.22 267.19,-90.75 -0.27,-1.78 -19.27,-128.91 -92.52,-73.97 -73.77,55.32 -108.5,111.14 -201.78,120.12l0 45.75z"/>
   <path class="fil13" d="M8109.69 12005.38c2.51,26.77 4.86,53.59 7.08,80.44l-0.01 0c-22.6,1.91 -63.46,22.68 -63.46,22.68 -106.23,8.5 -73.76,-79.91 -73.76,-79.91 0,0 55.32,0 73.76,6.15 18.44,6.14 56.39,-29.36 56.39,-29.36z"/>
   <path class="fil13" d="M8133.22 11844.17c0,0 0,-55.32 -43.03,-49.17 54.26,-75.98 95.08,14.48 43.03,49.17z"/>
   <circle class="fil11" cx="7879.57" cy="13878.54" r="134.49"/>
   <path class="fil9" d="M9191.9 10381.81c-348.91,356.33 -407.12,1108.45 42.33,1422.4 -738.81,-57.73 -616.42,-1345.13 -42.33,-1422.4z"/>
   <path class="fil0" d="M9639.63 11869.02c-346.13,-6.34 -625.07,-337.75 -625.07,-745.73 0,-407.97 278.94,-739.38 625.07,-745.72 346.13,6.34 625.07,337.75 625.07,745.72 0,407.98 -278.94,739.39 -625.07,745.73z"/>
   <path class="fil2" d="M9639.63 11784.19c-306.23,-6.09 -552.82,-288.54 -552.82,-636.15 0,-347.61 246.59,-630.06 552.82,-636.14 306.23,6.08 552.82,288.53 552.82,636.14 0,347.61 -246.59,630.06 -552.82,636.15z"/>
   <path class="fil12" d="M9639.63 11734.7c-282.96,-6.06 -510.69,-266.37 -510.69,-586.65 0,-320.29 227.73,-580.6 510.69,-586.66 282.96,6.06 510.69,266.37 510.69,586.66 0,320.28 -227.73,580.59 -510.69,586.65z"/>
   <path class="fil13" d="M9639.63 11734.73l-0.01 0c-3.35,0.07 -6.71,0.12 -10.08,0.12 -5.51,0 -10.99,-0.14 -16.46,-0.32l0 -1.12c-122.13,-9.57 -232.64,-66.6 -317.16,-154.82l91.9 -161.89c12.05,-261.59 30.1,-466.62 30.1,-466.62 -168.25,-197.58 -0.11,-445.13 155.6,-133.47l39.56 0 26.55 0 26.55 0 39.56 0c155.71,-311.66 323.85,-64.11 155.6,133.47 0,0 18.05,205.03 30.1,466.62l91.9 161.89c-84.52,88.22 -195.03,145.25 -317.16,154.82l0 1.12c-5.47,0.18 -10.95,0.32 -16.46,0.32 -3.37,0 -6.73,-0.05 -10.08,-0.12l-0.01 0z"/>
   <path class="fil12" d="M9639.63 11734.73l-0.01 0c-3.35,0.07 -6.71,0.12 -10.08,0.12 -5.51,0 -10.99,-0.14 -16.46,-0.32l0 -1.12c-96.95,-7.6 -186.57,-45.11 -261.68,-104.38 0.25,-2.05 18.87,-148.26 90.61,-85.07 72.24,63.63 106.26,127.82 197.62,138.14l0 52.63z"/>
   <path class="fil0" d="M9639.63 10864.69l-89.56 0 -11.86 -23.74c-20.57,-41.17 -55.44,-99.01 -94.4,-118.52 -13.78,-6.9 -29.2,-9.49 -40.59,3.91 -14.25,16.77 -15.92,47.05 -13.31,69.08 5.45,46.02 29.52,88.44 56.97,120.66l13.77 16.19 -2 22.75c-13.51,153.85 -22.84,309.9 -29.94,464.28l-0.6 13.13c0,0 47.92,167.26 188.84,201.83 7.79,-0.11 15.34,-0.61 22.68,-1.46 7.34,0.85 14.89,1.35 22.68,1.46 140.92,-34.57 188.84,-201.83 188.84,-201.83l-0.6 -13.13c-7.1,-154.38 -16.43,-310.43 -29.94,-464.28l-2 -22.75 13.77 -16.19c27.45,-32.22 51.52,-74.64 56.97,-120.66 2.61,-22.03 0.94,-52.31 -13.31,-69.08 -11.39,-13.4 -26.81,-10.81 -40.59,-3.91 -38.96,19.51 -73.83,77.35 -94.4,118.52l-11.86 23.74 -89.56 0z"/>
   <path class="fil13" d="M9453.01 11022.37c-2.46,30.79 -4.77,61.64 -6.93,92.52l0 0c22.14,2.19 62.15,26.08 62.15,26.08 104.04,9.78 72.25,-91.91 72.25,-91.91 0,0 -54.19,0 -72.25,7.07 -18.06,7.08 -55.22,-33.76 -55.22,-33.76z"/>
   <path class="fil13" d="M9429.96 10836.96c0,0 0,-63.63 42.15,-56.55 -53.15,-87.39 -93.12,16.65 -42.15,56.55z"/>
   <path class="fil13" d="M9639.63 11068.91c0,0 -53.13,8.44 -59.15,79.14 -6.03,70.69 -12.04,77.76 -12.04,77.76 0,0 24.44,32.08 71.19,32.08 46.75,0 71.19,-32.08 71.19,-32.08 0,0 -6.01,-7.07 -12.04,-77.76 -6.02,-70.7 -59.15,-79.14 -59.15,-79.14z"/>
   <path class="fil0" d="M9598.34 11210.45c11.74,9.38 28.41,13.94 41.29,13.94 12.88,0 29.55,-4.56 41.29,-13.94 -4.53,-19.95 -6.5,-47.72 -7.39,-58.14 -1.95,-22.91 -14.05,-44.59 -33.9,-49.55 -19.85,4.96 -31.95,26.64 -33.9,49.55 -0.89,10.42 -2.86,38.19 -7.39,58.14z"/>
   <path class="fil12" d="M9639.63 11734.73l0.01 0c3.35,0.07 6.71,0.12 10.08,0.12 5.51,0 10.99,-0.14 16.46,-0.32l0 -1.12c96.95,-7.6 186.57,-45.11 261.68,-104.38 -0.25,-2.05 -18.87,-148.26 -90.61,-85.07 -72.24,63.63 -106.26,127.82 -197.62,138.14l0 52.63z"/>
   <path class="fil13" d="M9826.25 11022.37c2.46,30.79 4.77,61.64 6.93,92.52l0 0c-22.14,2.19 -62.15,26.08 -62.15,26.08 -104.04,9.78 -72.25,-91.91 -72.25,-91.91 0,0 54.19,0 72.25,7.07 18.06,7.08 55.22,-33.76 55.22,-33.76z"/>
   <path class="fil13" d="M9849.3 10836.96c0,0 0,-63.63 -42.15,-56.55 53.15,-87.39 93.12,16.65 42.15,56.55z"/>
   <path class="fil9" d="M8124.66 15292.47c348.91,356.33 407.12,1108.45 -42.33,1422.4 738.81,-57.73 616.42,-1345.13 42.33,-1422.4z"/>
   <path class="fil0" d="M7676.93 16779.68c346.13,-6.34 625.07,-337.75 625.07,-745.73 0,-407.97 -278.94,-739.38 -625.07,-745.72 -346.13,6.34 -625.07,337.75 -625.07,745.72 0,407.98 278.94,739.39 625.07,745.73z"/>
   <path class="fil2" d="M7676.93 16694.85c306.23,-6.09 552.82,-288.54 552.82,-636.15 0,-347.61 -246.59,-630.06 -552.82,-636.14 -306.23,6.08 -552.82,288.53 -552.82,636.14 0,347.61 246.59,630.06 552.82,636.15z"/>
   <path class="fil12" d="M7676.93 16645.36c282.96,-6.06 510.69,-266.37 510.69,-586.65 0,-320.29 -227.73,-580.6 -510.69,-586.66 -282.96,6.06 -510.69,266.37 -510.69,586.66 0,320.28 227.73,580.59 510.69,586.65z"/>
   <path class="fil13" d="M7676.93 16645.39l0.01 0c3.35,0.07 6.71,0.12 10.08,0.12 5.51,0 10.99,-0.14 16.46,-0.32l0 -1.12c122.13,-9.57 232.64,-66.6 317.16,-154.82l-91.9 -161.89c-12.05,-261.59 -30.1,-466.62 -30.1,-466.62 168.25,-197.58 0.11,-445.13 -155.6,-133.47l-39.56 0 -26.55 0 -26.55 0 -39.56 0c-155.71,-311.66 -323.85,-64.11 -155.6,133.47 0,0 -18.05,205.03 -30.1,466.62l-91.9 161.89c84.52,88.22 195.03,145.25 317.16,154.82l0 1.12c5.47,0.18 10.95,0.32 16.46,0.32 3.37,0 6.73,-0.05 10.08,-0.12l0.01 0z"/>
   <path class="fil12" d="M7676.93 16645.39l0.01 0c3.35,0.07 6.71,0.12 10.08,0.12 5.51,0 10.99,-0.14 16.46,-0.32l0 -1.12c96.95,-7.6 186.57,-45.11 261.68,-104.38 -0.25,-2.05 -18.87,-148.26 -90.61,-85.07 -72.24,63.63 -106.26,127.82 -197.62,138.14l0 52.63z"/>
   <path class="fil0" d="M7676.93 15775.35l89.56 0 11.86 -23.74c20.57,-41.17 55.44,-99.01 94.4,-118.52 13.78,-6.9 29.2,-9.49 40.59,3.91 14.25,16.77 15.92,47.05 13.31,69.08 -5.45,46.02 -29.52,88.44 -56.97,120.66l-13.77 16.19 2 22.75c13.51,153.85 22.84,309.9 29.94,464.28l0.6 13.13c0,0 -47.92,167.26 -188.84,201.83 -7.79,-0.11 -15.34,-0.61 -22.68,-1.46 -7.34,0.85 -14.89,1.35 -22.68,1.46 -140.92,-34.57 -188.84,-201.83 -188.84,-201.83l0.6 -13.13c7.1,-154.38 16.43,-310.43 29.94,-464.28l2 -22.75 -13.77 -16.19c-27.45,-32.22 -51.52,-74.64 -56.97,-120.66 -2.61,-22.03 -0.94,-52.31 13.31,-69.08 11.39,-13.4 26.81,-10.81 40.59,-3.91 38.96,19.51 73.83,77.35 94.4,118.52l11.86 23.74 89.56 0z"/>
   <path class="fil13" d="M7863.55 15933.03c2.46,30.79 4.77,61.64 6.93,92.52l0 0c-22.14,2.19 -62.15,26.08 -62.15,26.08 -104.04,9.78 -72.25,-91.91 -72.25,-91.91 0,0 54.19,0 72.25,7.07 18.06,7.08 55.22,-33.76 55.22,-33.76z"/>
   <path class="fil13" d="M7886.6 15747.62c0,0 0,-63.63 -42.15,-56.55 53.15,-87.39 93.12,16.65 42.15,56.55z"/>
   <path class="fil13" d="M7676.93 15979.57c0,0 53.13,8.44 59.15,79.14 6.03,70.69 12.04,77.76 12.04,77.76 0,0 -24.44,32.08 -71.19,32.08 -46.75,0 -71.19,-32.08 -71.19,-32.08 0,0 6.01,-7.07 12.04,-77.76 6.02,-70.7 59.15,-79.14 59.15,-79.14z"/>
   <path class="fil0" d="M7718.22 16121.11c-11.74,9.38 -28.41,13.94 -41.29,13.94 -12.88,0 -29.55,-4.56 -41.29,-13.94 4.53,-19.95 6.5,-47.72 7.39,-58.14 1.95,-22.91 14.05,-44.59 33.9,-49.55 19.85,4.96 31.95,26.64 33.9,49.55 0.89,10.42 2.86,38.19 7.39,58.14z"/>
   <path class="fil12" d="M7676.93 16645.39l-0.01 0c-3.35,0.07 -6.71,0.12 -10.08,0.12 -5.51,0 -10.99,-0.14 -16.46,-0.32l0 -1.12c-96.95,-7.6 -186.57,-45.11 -261.68,-104.38 0.25,-2.05 18.87,-148.26 90.61,-85.07 72.24,63.63 106.26,127.82 197.62,138.14l0 52.63z"/>
   <path class="fil13" d="M7490.31 15933.03c-2.46,30.79 -4.77,61.64 -6.93,92.52l0 0c22.14,2.19 62.15,26.08 62.15,26.08 104.04,9.78 72.25,-91.91 72.25,-91.91 0,0 -54.19,0 -72.25,7.07 -18.06,7.08 -55.22,-33.76 -55.22,-33.76z"/>
   <path class="fil13" d="M7467.26 15747.62c0,0 0,-63.63 42.15,-56.55 -53.15,-87.39 -93.12,16.65 -42.15,56.55z"/>
   <path class="fil10" d="M11541.14 8976.34c0,0 1270,220.13 1905,575.73 0,0 152.4,101.6 254,25.4 101.6,-76.2 -59.26,-254 -270.93,-347.13 -127.29,-56 -300.51,-142.63 -536.21,-204.63 -301.05,-79.18 -1091.89,-144.69 -1351.86,-49.37z"/>
   <path class="fil11" d="M14322.44 9425.07c-7.98,10.61 -12.7,23.8 -12.7,38.1 0,35.07 28.43,63.5 63.5,63.5 35.07,0 63.5,-28.43 63.5,-63.5 0,-14.3 -4.72,-27.49 -12.7,-38.1l-101.6 0z"/>
   <path class="fil11" d="M13031.27 9560.54l-186.26 -84.67c-57.91,254.84 197.43,263.32 186.26,84.67z"/>
   <path class="fil0" d="M12883.49 14669.15c233.64,-3.64 421.93,-194.14 421.93,-428.65 0,-234.51 -188.29,-425.01 -421.93,-428.65 -233.64,3.64 -421.93,194.14 -421.93,428.65 0,234.51 188.29,425.01 421.93,428.65z"/>
   <path class="fil2" d="M12883.49 14620.39c206.71,-3.5 373.16,-165.86 373.16,-365.67 0,-199.81 -166.45,-362.16 -373.16,-365.66 -206.71,3.5 -373.16,165.85 -373.16,365.66 0,199.81 166.45,362.17 373.16,365.67z"/>
   <path class="fil14" d="M12883.49 14591.94c191,-3.48 344.72,-153.11 344.72,-337.21 0,-184.11 -153.72,-333.74 -344.72,-337.22 -191,3.48 -344.72,153.11 -344.72,337.22 0,184.1 153.72,333.73 344.72,337.21z"/>
   <path class="fil13" d="M12883.49 14591.96l0 0c2.27,0.04 4.54,0.07 6.81,0.07 3.72,0 7.42,-0.08 11.11,-0.19l0 -0.64c82.44,-5.5 157.04,-38.28 214.09,-88.99l-62.04 -93.06c-8.13,-150.36 -20.32,-268.21 -20.32,-268.21 113.58,-113.58 0.08,-255.87 -105.03,-76.72l-26.7 0 -17.92 0 -17.92 0 -26.7 0c-105.11,-179.15 -218.61,-36.86 -105.03,76.72 0,0 -12.19,117.85 -20.32,268.21l-62.04 93.06c57.05,50.71 131.65,83.49 214.09,88.99l0 0.64c3.69,0.11 7.39,0.19 11.11,0.19 2.27,0 4.54,-0.03 6.81,-0.07l0 0z"/>
   <path class="fil12" d="M12883.49 14591.96l0 0c2.27,0.04 4.54,0.07 6.81,0.07 3.72,0 7.42,-0.08 11.11,-0.19l0 -0.64c65.44,-4.37 125.94,-25.93 176.64,-60 -0.17,-1.17 -12.74,-85.22 -61.16,-48.9 -48.77,36.58 -71.73,73.48 -133.4,79.41l0 30.25z"/>
   <path class="fil0" d="M12883.49 14091.85l60.45 0 8.01 -13.65c13.89,-23.66 37.42,-56.91 63.72,-68.12 9.31,-3.97 19.71,-5.46 27.4,2.24 9.62,9.64 10.75,27.05 8.99,39.71 -3.69,26.46 -19.93,50.84 -38.46,69.36l-9.3 9.3 1.35 13.08c9.13,88.44 15.42,178.14 20.21,266.88l0.41 7.55c0,0 -32.35,96.14 -127.47,116.01 -5.26,-0.06 -10.36,-0.35 -15.31,-0.84 -4.95,0.49 -10.05,0.78 -15.31,0.84 -95.12,-19.87 -127.47,-116.01 -127.47,-116.01l0.41 -7.55c4.79,-88.74 11.08,-178.44 20.21,-266.88l1.35 -13.08 -9.3 -9.3c-18.53,-18.52 -34.77,-42.9 -38.46,-69.36 -1.76,-12.66 -0.63,-30.07 8.99,-39.71 7.69,-7.7 18.09,-6.21 27.4,-2.24 26.3,11.21 49.83,44.46 63.72,68.12l8.01 13.65 60.45 0z"/>
   <path class="fil13" d="M13009.46 14182.49c1.66,17.7 3.22,35.43 4.68,53.18l0 0c-14.94,1.26 -41.95,14.99 -41.95,14.99 -70.23,5.62 -48.77,-52.83 -48.77,-52.83 0,0 36.57,0 48.77,4.06 12.19,4.07 37.27,-19.4 37.27,-19.4z"/>
   <path class="fil0" d="M12938.3 14091.85l5.64 0 8.01 -13.65c13.89,-23.66 37.42,-56.91 63.72,-68.12 9.31,-3.97 19.71,-5.46 27.4,2.24 9.62,9.64 10.75,27.05 8.99,39.71 -3.69,26.46 -19.93,50.84 -38.46,69.36l-9.3 9.3 1.35 13.08c0.93,9.01 1.83,18.04 2.7,27.07 0,0 -51.1,-6.15 -70.05,-78.99z"/>
   <path class="fil0" d="M13025.02 14075.91c0,0 0,-36.57 -28.45,-32.51 35.87,-50.23 62.86,9.57 28.45,32.51z"/>
   <path class="fil13" d="M12883.49 14209.24c0,0 35.86,4.85 39.93,45.49 4.07,40.63 8.13,44.7 8.13,44.7 0,0 -16.5,18.44 -48.06,18.44 -31.56,0 -48.06,-18.44 -48.06,-18.44 0,0 4.06,-4.07 8.13,-44.7 4.07,-40.64 39.93,-45.49 39.93,-45.49z"/>
   <path class="fil0" d="M12911.36 14290.6c-7.93,5.39 -19.18,8.01 -27.87,8.01 -8.69,0 -19.94,-2.62 -27.87,-8.01 3.06,-11.47 4.38,-27.43 4.98,-33.42 1.32,-13.17 9.49,-25.63 22.89,-28.48 13.4,2.85 21.57,15.31 22.89,28.48 0.6,5.99 1.92,21.95 4.98,33.42z"/>
   <path class="fil12" d="M12883.49 14591.96l0 0c-2.27,0.04 -4.54,0.07 -6.81,0.07 -3.72,0 -7.42,-0.08 -11.11,-0.19l0 -0.64c-65.44,-4.37 -125.94,-25.93 -176.64,-60 0.17,-1.17 12.74,-85.22 61.16,-48.9 48.77,36.58 71.73,73.48 133.4,79.41l0 30.25z"/>
   <path class="fil13" d="M12757.52 14182.49c-1.66,17.7 -3.22,35.43 -4.68,53.18l0 0c14.94,1.26 41.95,14.99 41.95,14.99 70.23,5.62 48.77,-52.83 48.77,-52.83 0,0 -36.57,0 -48.77,4.06 -12.19,4.07 -37.27,-19.4 -37.27,-19.4z"/>
   <path class="fil0" d="M12828.68 14091.85l-5.64 0 -8.01 -13.65c-13.89,-23.66 -37.42,-56.91 -63.72,-68.12 -9.31,-3.97 -19.71,-5.46 -27.4,2.24 -9.62,9.64 -10.75,27.05 -8.99,39.71 3.69,26.46 19.93,50.84 38.46,69.36l9.3 9.3 -1.35 13.08c-0.93,9.01 -1.83,18.04 -2.7,27.07 0,0 51.1,-6.15 70.05,-78.99z"/>
   <path class="fil0" d="M12741.96 14075.91c0,0 0,-36.57 28.45,-32.51 -35.87,-50.23 -62.86,9.57 -28.45,32.51z"/>
   <path class="fil2" d="M14414.1 12858.31c417.91,-5.52 755.01,-345.96 755.01,-765.18 0,-419.22 -337.1,-759.66 -755.01,-765.18 -417.91,5.52 -755.01,345.96 -755.01,765.18 0,419.22 337.1,759.66 755.01,765.18z"/>
   <path class="fil0" d="M14414.1 12741.51c353.41,-5.51 638.22,-293.66 638.22,-648.38 0,-354.72 -284.81,-642.87 -638.22,-648.38 -353.41,5.51 -638.22,293.66 -638.22,648.38 0,354.72 284.81,642.87 638.22,648.38z"/>
   <path class="fil2" d="M14414.1 12667.75c312.67,-5.29 564.45,-250.87 564.45,-553.11 0,-302.23 -251.78,-547.81 -564.45,-553.1 -312.67,5.29 -564.45,250.87 -564.45,553.1 0,302.24 251.78,547.82 564.45,553.11z"/>
   <path class="fil12" d="M14414.1 12624.73c288.91,-5.27 521.43,-231.6 521.43,-510.08 0,-278.48 -232.52,-504.81 -521.43,-510.08 -288.91,5.27 -521.43,231.6 -521.43,510.08 0,278.48 232.52,504.81 521.43,510.08z"/>
   <path class="fil13" d="M14414.1 12624.75l0.01 0c3.42,0.07 6.85,0.1 10.29,0.1 5.63,0 11.23,-0.11 16.81,-0.27l0 -0.98c124.7,-8.32 237.53,-57.91 323.83,-134.61l-93.84 -140.76c-12.3,-227.44 -30.73,-405.7 -30.73,-405.7 171.79,-171.79 0.11,-387.03 -158.87,-116.05l-40.39 0 -27.11 0 -27.11 0 -40.39 0c-158.98,-270.98 -330.66,-55.74 -158.87,116.05 0,0 -18.43,178.26 -30.73,405.7l-93.84 140.76c86.3,76.7 199.13,126.29 323.83,134.61l0 0.98c5.58,0.16 11.18,0.27 16.81,0.27 3.44,0 6.87,-0.03 10.29,-0.1l0.01 0z"/>
   <path class="fil12" d="M14414.1 12624.75l0.01 0c3.42,0.07 6.85,0.1 10.29,0.1 5.63,0 11.23,-0.11 16.81,-0.27l0 -0.98c98.99,-6.6 190.49,-39.22 267.19,-90.75 -0.27,-1.78 -19.27,-128.91 -92.52,-73.97 -73.77,55.32 -108.5,111.14 -201.78,120.12l0 45.75z"/>
   <path class="fil0" d="M14414.1 11868.29l91.44 0 12.11 -20.65c21.01,-35.8 56.6,-86.09 96.39,-103.05 14.07,-5.99 29.81,-8.25 41.44,3.4 14.55,14.58 16.26,40.91 13.59,60.06 -5.56,40.02 -30.14,76.9 -58.17,104.92l-14.06 14.07 2.04 19.78c13.8,133.77 23.32,269.44 30.57,403.67l0.62 11.42c0,0 -48.93,145.43 -192.81,175.48 -7.96,-0.09 -15.67,-0.53 -23.16,-1.27 -7.49,0.74 -15.2,1.18 -23.16,1.27 -143.88,-30.05 -192.81,-175.48 -192.81,-175.48l0.62 -11.42c7.25,-134.23 16.77,-269.9 30.57,-403.67l2.04 -19.78 -14.06 -14.07c-28.03,-28.02 -52.61,-64.9 -58.17,-104.92 -2.67,-19.15 -0.96,-45.48 13.59,-60.06 11.63,-11.65 27.37,-9.39 41.44,-3.4 39.79,16.96 75.38,67.25 96.39,103.05l12.11 20.65 91.44 0z"/>
   <path class="fil13" d="M14604.65 12005.38c2.51,26.77 4.86,53.59 7.08,80.44l-0.01 0c-22.6,1.91 -63.46,22.68 -63.46,22.68 -106.23,8.5 -73.76,-79.91 -73.76,-79.91 0,0 55.32,0 73.76,6.15 18.44,6.14 56.39,-29.36 56.39,-29.36z"/>
   <path class="fil13" d="M14628.18 11844.17c0,0 0,-55.32 -43.03,-49.17 54.26,-75.98 95.08,14.48 43.03,49.17z"/>
   <path class="fil13" d="M14414.1 12045.84c0,0 54.25,7.34 60.4,68.81 6.15,61.47 12.29,67.61 12.29,67.61 0,0 -24.95,27.9 -72.69,27.9 -47.74,0 -72.69,-27.9 -72.69,-27.9 0,0 6.14,-6.14 12.29,-67.61 6.15,-61.47 60.4,-68.81 60.4,-68.81z"/>
   <path class="fil0" d="M14456.26 12168.91c-11.99,8.16 -29.01,12.12 -42.16,12.12 -13.15,0 -30.17,-3.96 -42.16,-12.12 4.63,-17.35 6.64,-41.49 7.54,-50.55 2,-19.92 14.35,-38.77 34.62,-43.08 20.27,4.31 32.62,23.16 34.62,43.08 0.9,9.06 2.91,33.2 7.54,50.55z"/>
   <path class="fil12" d="M14414.1 12624.75l-0.01 0c-3.42,0.07 -6.85,0.1 -10.29,0.1 -5.63,0 -11.23,-0.11 -16.81,-0.27l0 -0.98c-98.99,-6.6 -190.49,-39.22 -267.19,-90.75 0.27,-1.78 19.27,-128.91 92.52,-73.97 73.77,55.32 108.5,111.14 201.78,120.12l0 45.75z"/>
   <path class="fil13" d="M14223.55 12005.38c-2.51,26.77 -4.86,53.59 -7.08,80.44l0.01 0c22.6,1.91 63.46,22.68 63.46,22.68 106.23,8.5 73.76,-79.91 73.76,-79.91 0,0 -55.32,0 -73.76,6.15 -18.44,6.14 -56.39,-29.36 -56.39,-29.36z"/>
   <path class="fil13" d="M14200.02 11844.17c0,0 0,-55.32 43.03,-49.17 -54.26,-75.98 -95.08,14.48 -43.03,49.17z"/>
   <circle class="fil11" cx="14453.67" cy="13878.54" r="134.49"/>
   <path class="fil9" d="M13141.34 10381.81c348.91,356.33 407.12,1108.45 -42.33,1422.4 738.81,-57.73 616.42,-1345.13 42.33,-1422.4z"/>
   <path class="fil0" d="M12693.61 11869.02c346.13,-6.34 625.07,-337.75 625.07,-745.73 0,-407.97 -278.94,-739.38 -625.07,-745.72 -346.13,6.34 -625.07,337.75 -625.07,745.72 0,407.98 278.94,739.39 625.07,745.73z"/>
   <path class="fil2" d="M12693.61 11784.19c306.23,-6.09 552.82,-288.54 552.82,-636.15 0,-347.61 -246.59,-630.06 -552.82,-636.14 -306.23,6.08 -552.82,288.53 -552.82,636.14 0,347.61 246.59,630.06 552.82,636.15z"/>
   <path class="fil12" d="M12693.61 11734.7c282.96,-6.06 510.69,-266.37 510.69,-586.65 0,-320.29 -227.73,-580.6 -510.69,-586.66 -282.96,6.06 -510.69,266.37 -510.69,586.66 0,320.28 227.73,580.59 510.69,586.65z"/>
   <path class="fil13" d="M12693.61 11734.73l0.01 0c3.35,0.07 6.71,0.12 10.08,0.12 5.51,0 10.99,-0.14 16.46,-0.32l0 -1.12c122.13,-9.57 232.64,-66.6 317.16,-154.82l-91.9 -161.89c-12.05,-261.59 -30.1,-466.62 -30.1,-466.62 168.25,-197.58 0.11,-445.13 -155.6,-133.47l-39.56 0 -26.55 0 -26.55 0 -39.56 0c-155.71,-311.66 -323.85,-64.11 -155.6,133.47 0,0 -18.05,205.03 -30.1,466.62l-91.9 161.89c84.52,88.22 195.03,145.25 317.16,154.82l0 1.12c5.47,0.18 10.95,0.32 16.46,0.32 3.37,0 6.73,-0.05 10.08,-0.12l0.01 0z"/>
   <path class="fil12" d="M12693.61 11734.73l0.01 0c3.35,0.07 6.71,0.12 10.08,0.12 5.51,0 10.99,-0.14 16.46,-0.32l0 -1.12c96.95,-7.6 186.57,-45.11 261.68,-104.38 -0.25,-2.05 -18.87,-148.26 -90.61,-85.07 -72.24,63.63 -106.26,127.82 -197.62,138.14l0 52.63z"/>
   <path class="fil0" d="M12693.61 10864.69l89.56 0 11.86 -23.74c20.57,-41.17 55.44,-99.01 94.4,-118.52 13.78,-6.9 29.2,-9.49 40.59,3.91 14.25,16.77 15.92,47.05 13.31,69.08 -5.45,46.02 -29.52,88.44 -56.97,120.66l-13.77 16.19 2 22.75c13.51,153.85 22.84,309.9 29.94,464.28l0.6 13.13c0,0 -47.92,167.26 -188.84,201.83 -7.79,-0.11 -15.34,-0.61 -22.68,-1.46 -7.34,0.85 -14.89,1.35 -22.68,1.46 -140.92,-34.57 -188.84,-201.83 -188.84,-201.83l0.6 -13.13c7.1,-154.38 16.43,-310.43 29.94,-464.28l2 -22.75 -13.77 -16.19c-27.45,-32.22 -51.52,-74.64 -56.97,-120.66 -2.61,-22.03 -0.94,-52.31 13.31,-69.08 11.39,-13.4 26.81,-10.81 40.59,-3.91 38.96,19.51 73.83,77.35 94.4,118.52l11.86 23.74 89.56 0z"/>
   <path class="fil13" d="M12880.23 11022.37c2.46,30.79 4.77,61.64 6.93,92.52l0 0c-22.14,2.19 -62.15,26.08 -62.15,26.08 -104.04,9.78 -72.25,-91.91 -72.25,-91.91 0,0 54.19,0 72.25,7.07 18.06,7.08 55.22,-33.76 55.22,-33.76z"/>
   <path class="fil13" d="M12903.28 10836.96c0,0 0,-63.63 -42.15,-56.55 53.15,-87.39 93.12,16.65 42.15,56.55z"/>
   <path class="fil13" d="M12693.61 11068.91c0,0 53.13,8.44 59.15,79.14 6.03,70.69 12.04,77.76 12.04,77.76 0,0 -24.44,32.08 -71.19,32.08 -46.75,0 -71.19,-32.08 -71.19,-32.08 0,0 6.01,-7.07 12.04,-77.76 6.02,-70.7 59.15,-79.14 59.15,-79.14z"/>
   <path class="fil0" d="M12734.9 11210.45c-11.74,9.38 -28.41,13.94 -41.29,13.94 -12.88,0 -29.55,-4.56 -41.29,-13.94 4.53,-19.95 6.5,-47.72 7.39,-58.14 1.95,-22.91 14.05,-44.59 33.9,-49.55 19.85,4.96 31.95,26.64 33.9,49.55 0.89,10.42 2.86,38.19 7.39,58.14z"/>
   <path class="fil12" d="M12693.61 11734.73l-0.01 0c-3.35,0.07 -6.71,0.12 -10.08,0.12 -5.51,0 -10.99,-0.14 -16.46,-0.32l0 -1.12c-96.95,-7.6 -186.57,-45.11 -261.68,-104.38 0.25,-2.05 18.87,-148.26 90.61,-85.07 72.24,63.63 106.26,127.82 197.62,138.14l0 52.63z"/>
   <path class="fil13" d="M12506.99 11022.37c-2.46,30.79 -4.77,61.64 -6.93,92.52l0 0c22.14,2.19 62.15,26.08 62.15,26.08 104.04,9.78 72.25,-91.91 72.25,-91.91 0,0 -54.19,0 -72.25,7.07 -18.06,7.08 -55.22,-33.76 -55.22,-33.76z"/>
   <path class="fil13" d="M12483.94 10836.96c0,0 0,-63.63 42.15,-56.55 -53.15,-87.39 -93.12,16.65 -42.15,56.55z"/>
   <path class="fil9" d="M14208.58 15292.47c-348.91,356.33 -407.12,1108.45 42.33,1422.4 -738.81,-57.73 -616.42,-1345.13 -42.33,-1422.4z"/>
   <path class="fil0" d="M14656.31 16779.68c-346.13,-6.34 -625.07,-337.75 -625.07,-745.73 0,-407.97 278.94,-739.38 625.07,-745.72 346.13,6.34 625.07,337.75 625.07,745.72 0,407.98 -278.94,739.39 -625.07,745.73z"/>
   <path class="fil2" d="M14656.31 16694.85c-306.23,-6.09 -552.82,-288.54 -552.82,-636.15 0,-347.61 246.59,-630.06 552.82,-636.14 306.23,6.08 552.82,288.53 552.82,636.14 0,347.61 -246.59,630.06 -552.82,636.15z"/>
   <path class="fil12" d="M14656.31 16645.36c-282.96,-6.06 -510.69,-266.37 -510.69,-586.65 0,-320.29 227.73,-580.6 510.69,-586.66 282.96,6.06 510.69,266.37 510.69,586.66 0,320.28 -227.73,580.59 -510.69,586.65z"/>
   <path class="fil13" d="M14656.31 16645.39l-0.01 0c-3.35,0.07 -6.71,0.12 -10.08,0.12 -5.51,0 -10.99,-0.14 -16.46,-0.32l0 -1.12c-122.13,-9.57 -232.64,-66.6 -317.16,-154.82l91.9 -161.89c12.05,-261.59 30.1,-466.62 30.1,-466.62 -168.25,-197.58 -0.11,-445.13 155.6,-133.47l39.56 0 26.55 0 26.55 0 39.56 0c155.71,-311.66 323.85,-64.11 155.6,133.47 0,0 18.05,205.03 30.1,466.62l91.9 161.89c-84.52,88.22 -195.03,145.25 -317.16,154.82l0 1.12c-5.47,0.18 -10.95,0.32 -16.46,0.32 -3.37,0 -6.73,-0.05 -10.08,-0.12l-0.01 0z"/>
   <path class="fil12" d="M14656.31 16645.39l-0.01 0c-3.35,0.07 -6.71,0.12 -10.08,0.12 -5.51,0 -10.99,-0.14 -16.46,-0.32l0 -1.12c-96.95,-7.6 -186.57,-45.11 -261.68,-104.38 0.25,-2.05 18.87,-148.26 90.61,-85.07 72.24,63.63 106.26,127.82 197.62,138.14l0 52.63z"/>
   <path class="fil0" d="M14656.31 15775.35l-89.56 0 -11.86 -23.74c-20.57,-41.17 -55.44,-99.01 -94.4,-118.52 -13.78,-6.9 -29.2,-9.49 -40.59,3.91 -14.25,16.77 -15.92,47.05 -13.31,69.08 5.45,46.02 29.52,88.44 56.97,120.66l13.77 16.19 -2 22.75c-13.51,153.85 -22.84,309.9 -29.94,464.28l-0.6 13.13c0,0 47.92,167.26 188.84,201.83 7.79,-0.11 15.34,-0.61 22.68,-1.46 7.34,0.85 14.89,1.35 22.68,1.46 140.92,-34.57 188.84,-201.83 188.84,-201.83l-0.6 -13.13c-7.1,-154.38 -16.43,-310.43 -29.94,-464.28l-2 -22.75 13.77 -16.19c27.45,-32.22 51.52,-74.64 56.97,-120.66 2.61,-22.03 0.94,-52.31 -13.31,-69.08 -11.39,-13.4 -26.81,-10.81 -40.59,-3.91 -38.96,19.51 -73.83,77.35 -94.4,118.52l-11.86 23.74 -89.56 0z"/>
   <path class="fil13" d="M14469.69 15933.03c-2.46,30.79 -4.77,61.64 -6.93,92.52l0 0c22.14,2.19 62.15,26.08 62.15,26.08 104.04,9.78 72.25,-91.91 72.25,-91.91 0,0 -54.19,0 -72.25,7.07 -18.06,7.08 -55.22,-33.76 -55.22,-33.76z"/>
   <path class="fil13" d="M14446.64 15747.62c0,0 0,-63.63 42.15,-56.55 -53.15,-87.39 -93.12,16.65 -42.15,56.55z"/>
   <path class="fil13" d="M14656.31 15979.57c0,0 -53.13,8.44 -59.15,79.14 -6.03,70.69 -12.04,77.76 -12.04,77.76 0,0 24.44,32.08 71.19,32.08 46.75,0 71.19,-32.08 71.19,-32.08 0,0 -6.01,-7.07 -12.04,-77.76 -6.02,-70.7 -59.15,-79.14 -59.15,-79.14z"/>
   <path class="fil0" d="M14615.02 16121.11c11.74,9.38 28.41,13.94 41.29,13.94 12.88,0 29.55,-4.56 41.29,-13.94 -4.53,-19.95 -6.5,-47.72 -7.39,-58.14 -1.95,-22.91 -14.05,-44.59 -33.9,-49.55 -19.85,4.96 -31.95,26.64 -33.9,49.55 -0.89,10.42 -2.86,38.19 -7.39,58.14z"/>
   <path class="fil12" d="M14656.31 16645.39l0.01 0c3.35,0.07 6.71,0.12 10.08,0.12 5.51,0 10.99,-0.14 16.46,-0.32l0 -1.12c96.95,-7.6 186.57,-45.11 261.68,-104.38 -0.25,-2.05 -18.87,-148.26 -90.61,-85.07 -72.24,63.63 -106.26,127.82 -197.62,138.14l0 52.63z"/>
   <path class="fil13" d="M14842.93 15933.03c2.46,30.79 4.77,61.64 6.93,92.52l0 0c-22.14,2.19 -62.15,26.08 -62.15,26.08 -104.04,9.78 -72.25,-91.91 -72.25,-91.91 0,0 54.19,0 72.25,7.07 18.06,7.08 55.22,-33.76 55.22,-33.76z"/>
   <path class="fil13" d="M14865.98 15747.62c0,0 0,-63.63 -42.15,-56.55 53.15,-87.39 93.12,16.65 42.15,56.55z"/>
   <path class="fil0" d="M11166.62 14496.42c-507.59,-7.91 -916.64,-421.77 -916.64,-931.24 0,-509.47 409.05,-923.33 916.64,-931.24 507.59,7.91 916.64,421.77 916.64,931.24 0,509.47 -409.05,923.33 -916.64,931.24z"/>
   <path class="fil2" d="M11166.62 14390.49c-449.08,-7.6 -810.7,-360.32 -810.7,-794.41 0,-434.09 361.62,-786.8 810.7,-794.4 449.08,7.6 810.7,360.31 810.7,794.4 0,434.09 -361.62,786.81 -810.7,794.41z"/>
   <path class="fil12" d="M11166.62 14328.69c-414.95,-7.57 -748.9,-332.64 -748.9,-732.6 0,-399.97 333.95,-725.04 748.9,-732.61 414.95,7.57 748.9,332.64 748.9,732.61 0,399.96 -333.95,725.03 -748.9,732.6z"/>
   <path class="fil13" d="M11166.62 14328.72l-0.01 0c-4.92,0.1 -9.84,0.15 -14.79,0.15 -8.08,0 -16.12,-0.17 -24.14,-0.4l0 -1.39c-179.09,-11.95 -341.16,-83.17 -465.1,-193.34l134.78 -202.16c17.66,-326.67 44.14,-582.7 44.14,-582.7 -246.74,-246.74 -0.17,-555.88 228.17,-166.68l58.01 0 38.94 0 38.94 0 58.01 0c228.34,-389.2 474.91,-80.06 228.17,166.68 0,0 26.48,256.03 44.14,582.7l134.78 202.16c-123.94,110.17 -286.01,181.39 -465.1,193.34l0 1.39c-8.02,0.23 -16.06,0.4 -24.14,0.4 -4.95,0 -9.87,-0.05 -14.79,-0.15l-0.01 0z"/>
   <path class="fil12" d="M11166.62 14328.72l-0.01 0c-4.92,0.1 -9.84,0.15 -14.79,0.15 -8.08,0 -16.12,-0.17 -24.14,-0.4l0 -1.39c-142.17,-9.49 -273.59,-56.33 -383.75,-130.35 0.38,-2.55 27.68,-185.14 132.88,-106.24 105.95,79.46 155.84,159.63 289.81,172.52l0 65.71z"/>
   <path class="fil0" d="M11166.62 13242.25l-131.34 0 -17.39 -29.66c-30.17,-51.41 -81.29,-123.64 -138.44,-148 -20.21,-8.61 -42.81,-11.86 -59.52,4.88 -20.9,20.94 -23.35,58.76 -19.52,86.27 8,57.46 43.3,110.44 83.55,150.68l20.2 20.21 -2.93 28.41c-19.83,192.13 -33.5,386.99 -43.92,579.78l-0.88 16.4c0,0 70.27,208.87 276.93,252.04 11.42,-0.14 22.5,-0.76 33.26,-1.83 10.76,1.07 21.84,1.69 33.26,1.83 206.66,-43.17 276.93,-252.04 276.93,-252.04l-0.88 -16.4c-10.42,-192.79 -24.09,-387.65 -43.92,-579.78l-2.93 -28.41 20.2 -20.21c40.25,-40.24 75.55,-93.22 83.55,-150.68 3.83,-27.51 1.38,-65.33 -19.52,-86.27 -16.71,-16.74 -39.31,-13.49 -59.52,-4.88 -57.15,24.36 -108.27,96.59 -138.44,148l-17.39 29.66 -131.34 0z"/>
   <path class="fil13" d="M10892.95 13439.15c-3.61,38.45 -6.99,76.97 -10.17,115.53l0.01 0c32.46,2.74 91.14,32.58 91.14,32.58 152.57,12.21 105.94,-114.78 105.94,-114.78 0,0 -79.46,0 -105.94,8.83 -26.49,8.83 -80.98,-42.16 -80.98,-42.16z"/>
   <path class="fil13" d="M10859.15 13207.62c0,0 0,-79.46 61.8,-70.63 -77.93,-109.13 -136.56,20.79 -61.8,70.63z"/>
   <path class="fil13" d="M11166.62 13497.26c0,0 -77.92,10.55 -86.75,98.83 -8.83,88.28 -17.65,97.11 -17.65,97.11 0,0 35.84,40.06 104.4,40.06 68.56,0 104.4,-40.06 104.4,-40.06 0,0 -8.82,-8.83 -17.65,-97.11 -8.83,-88.28 -86.75,-98.83 -86.75,-98.83z"/>
   <path class="fil0" d="M11106.07 13674.01c17.22,11.72 41.67,17.42 60.55,17.42 18.88,0 43.33,-5.7 60.55,-17.42 -6.65,-24.91 -9.53,-59.58 -10.83,-72.59 -2.87,-28.62 -20.61,-55.69 -49.72,-61.88 -29.11,6.19 -46.85,33.26 -49.72,61.88 -1.3,13.01 -4.18,47.68 -10.83,72.59z"/>
   <path class="fil12" d="M11166.62 14328.72l0.01 0c4.92,0.1 9.84,0.15 14.79,0.15 8.08,0 16.12,-0.17 24.14,-0.4l0 -1.39c142.17,-9.49 273.59,-56.33 383.75,-130.35 -0.38,-2.55 -27.68,-185.14 -132.88,-106.24 -105.95,79.46 -155.84,159.63 -289.81,172.52l0 65.71z"/>
   <path class="fil13" d="M11440.29 13439.15c3.61,38.45 6.99,76.97 10.17,115.53l-0.01 0c-32.46,2.74 -91.14,32.58 -91.14,32.58 -152.57,12.21 -105.94,-114.78 -105.94,-114.78 0,0 79.46,0 105.94,8.83 26.49,8.83 80.98,-42.16 80.98,-42.16z"/>
   <path class="fil13" d="M11474.09 13207.62c0,0 0,-79.46 -61.8,-70.63 77.93,-109.13 136.56,20.79 61.8,70.63z"/>
   <path class="fil9" d="M10704.93 15834.34c-348.91,356.33 -407.12,1108.45 42.33,1422.4 -738.81,-57.73 -616.42,-1345.13 -42.33,-1422.4z"/>
   <path class="fil0" d="M11152.66 17321.55c-346.13,-6.34 -625.07,-337.75 -625.07,-745.73 0,-407.97 278.94,-739.38 625.07,-745.72 346.13,6.34 625.07,337.75 625.07,745.72 0,407.98 -278.94,739.39 -625.07,745.73z"/>
   <path class="fil2" d="M11152.66 17236.72c-306.23,-6.09 -552.82,-288.54 -552.82,-636.15 0,-347.61 246.59,-630.06 552.82,-636.14 306.23,6.08 552.82,288.53 552.82,636.14 0,347.61 -246.59,630.06 -552.82,636.15z"/>
   <path class="fil12" d="M11152.66 17187.23c-282.96,-6.06 -510.69,-266.37 -510.69,-586.65 0,-320.29 227.73,-580.6 510.69,-586.66 282.96,6.06 510.69,266.37 510.69,586.66 0,320.28 -227.73,580.59 -510.69,586.65z"/>
   <path class="fil13" d="M11152.66 17187.26l-0.01 0c-3.35,0.07 -6.71,0.12 -10.08,0.12 -5.51,0 -10.99,-0.14 -16.46,-0.32l0 -1.12c-122.13,-9.57 -232.64,-66.6 -317.16,-154.82l91.9 -161.89c12.05,-261.59 30.1,-466.62 30.1,-466.62 -168.25,-197.58 -0.11,-445.13 155.6,-133.47l39.56 0 26.55 0 26.55 0 39.56 0c155.71,-311.66 323.85,-64.11 155.6,133.47 0,0 18.05,205.03 30.1,466.62l91.9 161.89c-84.52,88.22 -195.03,145.25 -317.16,154.82l0 1.12c-5.47,0.18 -10.95,0.32 -16.46,0.32 -3.37,0 -6.73,-0.05 -10.08,-0.12l-0.01 0z"/>
   <path class="fil12" d="M11152.66 17187.26l-0.01 0c-3.35,0.07 -6.71,0.12 -10.08,0.12 -5.51,0 -10.99,-0.14 -16.46,-0.32l0 -1.12c-96.95,-7.6 -186.57,-45.11 -261.68,-104.38 0.25,-2.05 18.87,-148.26 90.61,-85.07 72.24,63.63 106.26,127.82 197.62,138.14l0 52.63z"/>
   <path class="fil0" d="M11152.66 16317.22l-89.56 0 -11.86 -23.74c-20.57,-41.17 -55.44,-99.01 -94.4,-118.52 -13.78,-6.9 -29.2,-9.49 -40.59,3.91 -14.25,16.77 -15.92,47.05 -13.31,69.08 5.45,46.02 29.52,88.44 56.97,120.66l13.77 16.19 -2 22.75c-13.51,153.85 -22.84,309.9 -29.94,464.28l-0.6 13.13c0,0 47.92,167.26 188.84,201.83 7.79,-0.11 15.34,-0.61 22.68,-1.46 7.34,0.85 14.89,1.35 22.68,1.46 140.92,-34.57 188.84,-201.83 188.84,-201.83l-0.6 -13.13c-7.1,-154.38 -16.43,-310.43 -29.94,-464.28l-2 -22.75 13.77 -16.19c27.45,-32.22 51.52,-74.64 56.97,-120.66 2.61,-22.03 0.94,-52.31 -13.31,-69.08 -11.39,-13.4 -26.81,-10.81 -40.59,-3.91 -38.96,19.51 -73.83,77.35 -94.4,118.52l-11.86 23.74 -89.56 0z"/>
   <path class="fil15" d="M10966.04 16474.9c-2.46,30.79 -4.77,61.64 -6.93,92.52l0 0c22.14,2.19 62.15,26.08 62.15,26.08 104.04,9.78 72.25,-91.91 72.25,-91.91 0,0 -54.19,0 -72.25,7.07 -18.06,7.08 -55.22,-33.76 -55.22,-33.76z"/>
   <path class="fil13" d="M10942.99 16289.49c0,0 0,-63.63 42.15,-56.55 -53.15,-87.39 -93.12,16.65 -42.15,56.55z"/>
   <path class="fil13" d="M11152.66 16521.44c0,0 -53.13,8.44 -59.15,79.14 -6.03,70.69 -12.04,77.76 -12.04,77.76 0,0 24.44,32.08 71.19,32.08 46.75,0 71.19,-32.08 71.19,-32.08 0,0 -6.01,-7.07 -12.04,-77.76 -6.02,-70.7 -59.15,-79.14 -59.15,-79.14z"/>
   <path class="fil0" d="M11111.37 16662.98c11.74,9.38 28.41,13.94 41.29,13.94 12.88,0 29.55,-4.56 41.29,-13.94 -4.53,-19.95 -6.5,-47.72 -7.39,-58.14 -1.95,-22.91 -14.05,-44.59 -33.9,-49.55 -19.85,4.96 -31.95,26.64 -33.9,49.55 -0.89,10.42 -2.86,38.19 -7.39,58.14z"/>
   <path class="fil12" d="M11152.66 17187.26l0.01 0c3.35,0.07 6.71,0.12 10.08,0.12 5.51,0 10.99,-0.14 16.46,-0.32l0 -1.12c96.95,-7.6 186.57,-45.11 261.68,-104.38 -0.25,-2.05 -18.87,-148.26 -90.61,-85.07 -72.24,63.63 -106.26,127.82 -197.62,138.14l0 52.63z"/>
   <path class="fil13" d="M11339.28 16474.9c2.46,30.79 4.77,61.64 6.93,92.52l0 0c-22.14,2.19 -62.15,26.08 -62.15,26.08 -104.04,9.78 -72.25,-91.91 -72.25,-91.91 0,0 54.19,0 72.25,7.07 18.06,7.08 55.22,-33.76 55.22,-33.76z"/>
   <path class="fil13" d="M11362.33 16289.49c0,0 0,-63.63 -42.15,-56.55 53.15,-87.39 93.12,16.65 42.15,56.55z"/>
   <path class="fil6" d="M11541.14 8976.34c0,0 1270,220.13 1905,575.73 0,0 132.65,88.41 232.94,38.38 -178.98,-249.92 -637.17,-563.19 -1683.11,-661.3 -189.81,-1.31 -358.66,11.93 -454.83,47.19z"/>
   <path class="fil16" d="M8229.22 24812.12c-22.57,2.23 -66.13,4.45 -130.99,6.04 -64.87,1.59 -134.5,2.23 -208.58,1.91 -74.41,-0.32 -144.36,-2.54 -210.17,-6.68 -65.82,-4.13 -110.33,-11.12 -133.23,-20.98 -21.62,-8.59 -38.47,-71.86 -50.23,-190.14 -11.77,-117.96 -19.72,-250.23 -23.21,-397.13 -3.82,-146.89 -4.14,-288.38 -0.96,-424.79 3.18,-136.4 8.9,-227.34 17.81,-273.44 5.4,-29.25 36.56,-55.01 93.48,-77.26 56.91,-22.26 125.59,-37.84 206.35,-46.11 80.76,-8.26 166.61,-8.26 257.55,0.32 90.93,8.9 173.6,29.25 248.32,61.69 108.42,48.32 181.23,127.81 217.8,238.46 36.56,110.33 23.85,214.31 -38.16,310.96l2.87 1.91c82.03,49.6 136.08,114.47 162.47,193.96 26.39,79.48 28.94,163.11 7.95,251.18 -22.89,96.98 -72.17,180.28 -147.21,250.23 -75.04,69.95 -165.66,109.7 -271.86,119.87zm-294.42 -1082.64c-7.63,26.07 -8.59,61.05 -3.18,104.93 5.08,43.87 16.85,68.36 34.97,74.08 34.02,11.13 69.32,4.45 105.56,-19.71 36.25,-24.17 54.37,-54.69 54.37,-91.26 0,-24.16 -10.17,-46.1 -31.16,-66.13 -20.66,-19.71 -52.46,-30.21 -95.38,-30.84 -38.48,0 -60.41,9.85 -65.18,28.93zm19.39 707.14c14.95,33.38 60.1,39.74 135.13,19.07 75.36,-20.66 107.15,-62.95 96.03,-126.23 -7.95,-45.78 -36.57,-81.39 -85.85,-106.51 -48.97,-25.44 -93.8,-28.62 -134.82,-9.86 -21.3,9.86 -31.79,41.66 -32.11,95.39 -0.32,53.73 6.68,96.34 21.62,128.14z"/>
   <path class="fil17" d="M15078.76 25311.65c-22.57,2.23 -66.13,4.45 -130.99,6.04 -64.87,1.59 -134.5,2.23 -208.58,1.91 -74.41,-0.32 -144.36,-2.54 -210.17,-6.68 -65.82,-4.13 -110.33,-11.12 -133.23,-20.98 -21.62,-8.59 -38.47,-71.86 -50.23,-190.14 -11.77,-117.96 -19.72,-250.23 -23.21,-397.13 -3.82,-146.89 -4.14,-288.38 -0.96,-424.79 3.18,-136.4 8.9,-227.34 17.81,-273.44 5.4,-29.25 36.56,-55.01 93.48,-77.26 56.91,-22.26 125.59,-37.84 206.35,-46.11 80.76,-8.26 166.61,-8.26 257.55,0.32 90.93,8.9 173.6,29.25 248.32,61.69 108.42,48.32 181.23,127.81 217.8,238.46 36.56,110.33 23.85,214.31 -38.16,310.96l2.87 1.91c82.03,49.6 136.08,114.47 162.47,193.96 26.39,79.48 28.94,163.11 7.95,251.18 -22.89,96.98 -72.17,180.28 -147.21,250.23 -75.04,69.95 -165.66,109.7 -271.86,119.87zm-294.42 -1082.64c-7.63,26.07 -8.59,61.05 -3.18,104.93 5.08,43.87 16.85,68.36 34.97,74.08 34.02,11.13 69.32,4.45 105.56,-19.71 36.25,-24.17 54.37,-54.69 54.37,-91.26 0,-24.16 -10.17,-46.1 -31.16,-66.13 -20.66,-19.71 -52.46,-30.21 -95.38,-30.84 -38.48,0 -60.41,9.85 -65.18,28.93zm19.39 707.14c14.95,33.38 60.1,39.74 135.13,19.07 75.36,-20.66 107.15,-62.95 96.03,-126.23 -7.95,-45.78 -36.57,-81.39 -85.85,-106.51 -48.97,-25.44 -93.8,-28.62 -134.82,-9.86 -21.3,9.86 -31.79,41.66 -32.11,95.39 -0.32,53.73 6.68,96.34 21.62,128.14z"/>
   <path class="fil3" d="M10617.15 24707.41c-6.85,-10.63 -9.79,-23.46 -9.1,-38.23 2.95,-50.06 15.32,-124.81 37.2,-224.75 22.12,-100.08 48.1,-204.43 78.03,-313.27 30.25,-109.3 61.21,-212.44 93.59,-309.55 32.37,-97.93 59.66,-167.89 81.83,-209.64 8.82,-16.4 32.83,-34.18 72.46,-53.81 40.24,-19.94 85.11,-37.26 134.82,-51.68 50.72,-14.98 100.1,-24.59 148.13,-29.23 49.18,-4.5 83.29,1.09 102.51,17.35 27.41,24.55 58.53,84.96 93.91,182.71 35.84,99.54 71.08,210.93 105.67,334.56 35.05,126.35 66.9,250.31 95.41,371.49 28.73,123.13 47.8,211.9 56.93,264.2 6.36,38.47 2.55,65.25 -11.1,79.85 -13.59,14.54 -36.55,23.73 -68.06,28.25 -52.85,7.06 -116.74,11.19 -191.17,12.49 -72.42,0.94 -116.81,0.07 -134.2,-3.22 -7.01,-1.55 -13.1,-4.59 -18.83,-8.81 -18.13,-13.9 -34.13,-52.05 -47.77,-113.83 -13.78,-61.17 -28.04,-102.83 -42.82,-125.31 -8.76,-13.22 -20.9,-21.11 -36.41,-23.09l-119.69 -0.35c-36.37,1.3 -60.71,15.21 -73.19,42.26 -16.24,34.53 -34.34,72.83 -54.47,114.55 -20.04,41.8 -34.48,67.07 -43.22,76.81 -4.53,5.68 -10.76,9.59 -18.9,11.47 -18.46,3.87 -60.89,3.24 -125.96,-2.31 -63.3,-5.4 -98.15,-15.02 -105.6,-28.91zm475.19 -717.16c-17.07,20.87 -34.64,54.41 -52.73,100.56 -18.01,45.97 -25.45,75.85 -22.3,89.47 5.36,23.52 35.24,32.57 90.3,26.7 56.03,-5.98 88.08,-23.48 94.7,-52.38 4.15,-17.82 -8.53,-56.34 -37.41,-115.2 -28.19,-57.96 -52.46,-74.06 -72.56,-49.15z"/>
   <path class="fil18" d="M3915.45 27819.02c-11.77,-12.4 -17.81,-27.66 -18.44,-45.46 -1.27,-60.42 9.22,-151.03 31.48,-272.17 22.57,-121.15 50.55,-247.06 83.94,-377.74 33.7,-130.68 68.99,-253.09 106.83,-367.24 37.52,-114.46 70.27,-194.9 98.25,-241.33 11.13,-18.12 43.88,-34.34 98.25,-48.96 54.37,-14.63 114.46,-24.8 180.28,-30.21 65.82,-5.72 129.09,-5.4 189.82,0.32 61.05,6.04 103.33,20.03 127.82,42.61 34.65,33.38 75.67,106.83 123.36,220.66 47.38,113.51 93.8,237.19 139.27,371.05 45.15,133.86 85.85,262.32 122.09,385.37 35.93,122.73 59.78,209.85 71.54,260.72 8.27,37.2 5.73,63.28 -7.31,77.9 -13.03,14.63 -35.93,24.48 -68.04,30.21 -54.69,9.22 -122.41,16.21 -203.49,20.98 -81.08,4.45 -131.96,5.73 -152.3,3.18 -8.27,-1.27 -15.58,-4.13 -22.58,-8.26 -22.26,-13.68 -43.88,-53.1 -64.54,-117.97 -20.99,-64.86 -41.34,-109.37 -61.05,-133.54 -11.77,-14.31 -27.35,-22.89 -46.74,-25.12l-152.62 -0.95c-47.69,1.27 -78.85,16.85 -93.16,47.37 -18.76,39.11 -39.75,82.67 -63.28,130.37 -23.52,48.01 -41.01,77.26 -52.14,88.71 -5.72,6.67 -13.99,11.44 -25.12,13.99 -25.44,5.4 -85.53,6.99 -180.28,4.13 -94.75,-2.86 -148.8,-12.4 -161.84,-28.62zm603.8 -821.6c-20.67,21.94 -41.02,58.51 -61.05,109.7 -20.03,51.19 -27.34,84.89 -21.94,100.79 9.22,27.35 49.6,39.75 120.83,36.88 70.9,-2.86 109.69,-20.03 115.73,-51.5 3.82,-19.4 -14.94,-63.28 -55.96,-131.96 -40.7,-68.68 -73.45,-89.98 -97.61,-63.91z"/>
   <path class="fil17" d="M8212.76 26766.63c2.79,25.41 4.75,73.14 6.14,142.93 1.4,69.78 2.52,142.36 3.63,217.73 1.12,75.09 2.51,143.2 3.63,204.05 1.4,60.58 3.63,94.91 6.14,102.45 3.91,12.56 22.05,19.54 54.44,20.94 32.38,1.39 68.67,0.83 108.86,-1.12 39.92,-2.23 78.72,-4.47 115.57,-6.98 37.12,-2.51 62.53,-1.67 76.2,2.79 19.54,6.42 35.46,34.9 47.74,85.42 12.28,50.53 20.38,104.96 23.73,163.58 3.62,58.62 2.23,112.5 -4.47,161.9 -6.42,49.41 -18.98,76.21 -37.69,80.68 -27.63,6.98 -83.18,13.68 -166.37,19.82 -83.18,6.42 -171.11,10.05 -263.79,11.16 -92.67,1.12 -178.37,-1.67 -257.37,-8.09 -79.28,-6.7 -127.85,-19.82 -146.55,-39.36 -18.42,-19.54 -32.94,-83.19 -42.99,-190.38 -10.05,-107.47 -16.75,-225.55 -20.38,-354.23 -3.63,-128.69 -5.02,-250.96 -4.18,-367.08 0.83,-116.12 3.63,-193.17 7.81,-230.85 2.24,-22.33 28.75,-38.52 79.28,-48.85 50.8,-10.61 106.07,-15.91 166.09,-16.19 60.02,-0.28 115.29,4.18 165.53,12.84 50.53,8.65 76.77,20.93 79,36.84z"/>
   <path class="fil19" d="M12504.73 27337.67c-21.94,138 -84.58,253.1 -188.23,345.62 -103.66,92.53 -227.66,132.27 -371.69,119.24 -5.73,71.54 -12.4,131.63 -20.03,180.59 -7.95,49.29 -16.22,79.18 -25.76,90.3 -13.04,24.49 -76.63,38.79 -190.77,43.88 -114.47,5.09 -195.23,-2.86 -242.29,-23.21 -20.98,-9.22 -39.74,-71.54 -56.27,-186.96 -16.54,-115.1 -29.89,-244.82 -40.07,-388.86 -10.17,-144.03 -16.85,-282.66 -20.03,-415.89 -3.18,-133.22 -2.54,-222.57 1.91,-267.71 4.13,-42.29 40.06,-74.41 107.47,-96.98 67.41,-22.26 145.62,-36.25 234.33,-41.97 88.71,-5.41 178.06,-3.5 268.36,6.04 89.98,9.86 160.25,25.12 210.49,46.1 265.17,111.92 375.82,308.42 332.58,589.81zm-400.63 -111.92c-14.31,-67.09 -59.77,-104.61 -136.08,-112.55 -14.31,-0.64 -25.76,-0.32 -34.34,0.95 -59.78,10.49 -86.8,53.1 -81.08,127.5 5.4,74.72 25.44,123.05 59.46,145.31 14.94,10.49 37.83,13.03 68.04,7.63 45.47,-7 79.49,-26.39 102.06,-58.19 22.58,-32.11 29.89,-69 21.94,-110.65z"/>
   <path class="fil16" d="M14972.92 28259.28c-11.77,-12.4 -17.81,-27.66 -18.44,-45.46 -1.27,-60.42 9.22,-151.03 31.48,-272.17 22.57,-121.15 50.55,-247.06 83.94,-377.74 33.7,-130.68 68.99,-253.09 106.83,-367.24 37.52,-114.46 70.27,-194.9 98.25,-241.33 11.13,-18.12 43.88,-34.34 98.25,-48.96 54.37,-14.63 114.46,-24.8 180.28,-30.21 65.82,-5.72 129.09,-5.4 189.82,0.32 61.05,6.04 103.33,20.03 127.82,42.61 34.65,33.38 75.67,106.83 123.36,220.66 47.38,113.51 93.8,237.19 139.27,371.05 45.15,133.86 85.85,262.32 122.09,385.37 35.93,122.73 59.78,209.85 71.54,260.72 8.27,37.2 5.73,63.28 -7.31,77.9 -13.03,14.63 -35.93,24.48 -68.04,30.21 -54.69,9.22 -122.41,16.21 -203.49,20.98 -81.08,4.45 -131.96,5.73 -152.3,3.18 -8.27,-1.27 -15.58,-4.13 -22.58,-8.26 -22.26,-13.68 -43.88,-53.1 -64.54,-117.97 -20.99,-64.86 -41.34,-109.37 -61.05,-133.54 -11.77,-14.31 -27.35,-22.89 -46.74,-25.12l-152.62 -0.95c-47.69,1.27 -78.85,16.85 -93.16,47.37 -18.76,39.11 -39.75,82.67 -63.28,130.37 -23.52,48.01 -41.01,77.26 -52.14,88.71 -5.72,6.67 -13.99,11.44 -25.12,13.99 -25.44,5.4 -85.53,6.99 -180.28,4.13 -94.75,-2.86 -148.8,-12.4 -161.84,-28.62zm603.8 -821.6c-20.67,21.94 -41.02,58.51 -61.05,109.7 -20.03,51.19 -27.34,84.89 -21.94,100.79 9.22,27.35 49.6,39.75 120.83,36.88 70.9,-2.86 109.69,-20.03 115.73,-51.5 3.82,-19.4 -14.94,-63.28 -55.96,-131.96 -40.7,-68.68 -73.45,-89.98 -97.61,-63.91z"/>
   <path class="fil20" d="M19681.34 27418.31c-27.35,1.27 -54.37,2.86 -81.4,4.77 -27.03,1.59 -53.42,4.76 -78.85,9.22 -65.19,13.03 -124.32,43.87 -177.42,92.52 -53.1,48.97 -72.5,109.38 -58.19,181.24 6.68,33.06 22.26,58.82 46.42,77.26 38.47,30.52 89.98,45.15 153.89,43.56 63.91,-1.59 119.24,-7.63 165.66,-18.12 26.07,-8.91 51.51,-7.63 76.63,3.49 22.89,11.13 43.56,30.53 62.32,57.87 29.25,44.83 49.28,104.29 60.09,178.69 10.81,74.72 6.68,136.09 -12.72,184.42 -15.58,39.74 -39.11,63.59 -70.59,70.9 -102.06,37.2 -213.98,55.33 -336.39,54.37 -122.42,-0.63 -232.11,-23.21 -328.77,-67.4 -131,-58.82 -231.47,-145.94 -301.11,-260.73 -69.31,-115.1 -96.97,-246.1 -82.66,-393.31 24.16,-232.74 116.37,-414.62 276.62,-545.61 160.25,-131 359.61,-183.78 598.07,-158.35 39.75,4.14 74.72,25.12 105.25,62.32 29.89,37.2 54.37,102.07 74.08,194.59 19.4,92.53 7.95,160.25 -34.97,203.18 -16.22,16.21 -34.98,24.48 -55.96,25.12z"/>
   <path class="fil3" d="M22093.38 28631.82c-11.77,-12.4 -17.81,-27.66 -18.44,-45.46 -1.27,-60.42 9.22,-151.03 31.48,-272.17 22.57,-121.15 50.55,-247.06 83.94,-377.74 33.7,-130.68 68.99,-253.09 106.83,-367.24 37.52,-114.46 70.27,-194.9 98.25,-241.33 11.13,-18.12 43.88,-34.34 98.25,-48.96 54.37,-14.63 114.46,-24.8 180.28,-30.21 65.82,-5.72 129.09,-5.4 189.82,0.32 61.05,6.04 103.33,20.03 127.82,42.61 34.65,33.38 75.67,106.83 123.36,220.66 47.38,113.51 93.8,237.19 139.27,371.05 45.15,133.86 85.85,262.32 122.09,385.37 35.93,122.73 59.78,209.85 71.54,260.72 8.27,37.2 5.73,63.28 -7.31,77.9 -13.03,14.63 -35.93,24.48 -68.04,30.21 -54.69,9.22 -122.41,16.21 -203.49,20.98 -81.08,4.45 -131.96,5.73 -152.3,3.18 -8.27,-1.27 -15.58,-4.13 -22.58,-8.26 -22.26,-13.68 -43.88,-53.1 -64.54,-117.97 -20.99,-64.86 -41.34,-109.37 -61.05,-133.54 -11.77,-14.31 -27.35,-22.89 -46.74,-25.12l-152.62 -0.95c-47.69,1.27 -78.85,16.85 -93.16,47.37 -18.76,39.11 -39.75,82.67 -63.28,130.37 -23.52,48.01 -41.01,77.26 -52.14,88.71 -5.72,6.67 -13.99,11.44 -25.12,13.99 -25.44,5.4 -85.53,6.99 -180.28,4.13 -94.75,-2.86 -148.8,-12.4 -161.84,-28.62zm603.8 -821.6c-20.67,21.94 -41.02,58.51 -61.05,109.7 -20.03,51.19 -27.34,84.89 -21.94,100.79 9.22,27.35 49.6,39.75 120.83,36.88 70.9,-2.86 109.69,-20.03 115.73,-51.5 3.82,-19.4 -14.94,-63.28 -55.96,-131.96 -40.7,-68.68 -73.45,-89.98 -97.61,-63.91z"/>
   <rect class="fil2" x="19469.72" y="9940.29" width="228.2" height="451.15"/>
   <path class="fil2" d="M19280.1 9727.78c0,0 53.52,-65.53 315.55,-60.76 262.04,-4.77 315.54,60.76 315.54,60.76 -58,403.21 -573.09,403.21 -631.09,0z"/>
   <path class="fil2" d="M19587.42 10183.86c-190.1,-60.5 -473.02,-190.49 -668.14,-147.09 -162.5,36.15 -353.33,177.27 -254.73,665.05 -391.99,608.25 468.28,913.78 922.87,913.78 454.59,0 1314.86,-305.53 922.87,-913.78 98.6,-487.78 -92.23,-628.9 -254.73,-665.05 -195.12,-43.4 -478.04,86.59 -668.14,147.09z"/>
   <path class="fil10" d="M19308.02 10261.56c0,0 -135.47,59.26 -160.87,245.53l-347.13 135.47c-73.91,-411.68 125.16,-613.03 508,-381z"/>
   <path class="fil0" d="M19155.62 10710.29l-16.94 -101.6c-824.74,143.77 -418.52,912.44 448.74,912.44 867.26,0 1273.48,-768.67 448.74,-912.44l-16.94 101.6c187.64,49.67 370.86,213.49 239.25,403.26 -168.44,242.95 -671.05,252.16 -671.05,252.16 0,0 -502.61,-9.21 -671.05,-252.16 -131.61,-189.77 51.61,-353.59 239.25,-403.26z"/>
   <path class="fil21" d="M19587.42 10312.64c-409.22,-57.21 -510.66,487.66 -101.6,533.12 31.28,13.8 150.3,21.53 203.2,0 409.06,-45.46 307.62,-590.33 -101.6,-533.12z"/>
   <path class="fil10" d="M19587.42 11175.65c-739.25,27.86 -676.48,-395.57 -321.74,-338.36 0,0 84.68,99.86 321.74,99.86 237.06,0 321.74,-99.86 321.74,-99.86 354.74,-57.21 417.51,366.22 -321.74,338.36z"/>
   <path class="fil10" d="M19866.82 10261.56c0,0 135.47,59.26 160.87,245.53l347.13 135.47c73.91,-411.68 -125.16,-613.03 -508,-381z"/>
  </g>
 </g>
</svg>
